<?xml version="1.0" encoding="UTF-8"?>
<svg width="40px" height="40px" viewBox="0 0 40 40" version="1.1" xmlns="http://www.w3.org/2000/svg" xmlns:xlink="http://www.w3.org/1999/xlink">
    <title>Icons/Block ON</title>
    <defs>
        <path d="M29,32 L29,18.5 L26,18.5 L26,14.1171875 C26,13.2734375 25.8476562,12.4804688 25.5429688,11.7382812 C25.2382812,10.9960938 24.8164062,10.3476562 24.2773438,9.79296875 C23.7382812,9.23828125 23.1035156,8.80078125 22.3730469,8.48046875 C21.6425781,8.16015625 20.8515625,8 20,8 C19.1484375,8 18.3574219,8.16015625 17.6269531,8.48046875 C16.8964844,8.80078125 16.2617188,9.23828125 15.7226562,9.79296875 C15.1835938,10.3476562 14.7617188,10.9960938 14.4570312,11.7382812 C14.1523438,12.4804688 14,13.2734375 14,14.1171875 L14,14.1171875 L14,18.5 L11,18.5 L11,32 L29,32 Z M24.5,18.5 L15.5,18.5 L15.5,14.1171875 C15.5,13.484375 15.6132812,12.8886719 15.8398438,12.3300781 C16.0664062,11.7714844 16.3808594,11.28125 16.7832031,10.859375 C17.1855469,10.4375 17.6621094,10.1054688 18.2128906,9.86328125 C18.7636719,9.62109375 19.359375,9.5 20,9.5 C20.640625,9.5 21.2363281,9.62109375 21.7871094,9.86328125 C22.3378906,10.1054688 22.8144531,10.4375 23.2167969,10.859375 C23.6191406,11.28125 23.9335938,11.7714844 24.1601562,12.3300781 C24.3867188,12.8886719 24.5,13.484375 24.5,14.1171875 L24.5,14.1171875 L24.5,18.5 Z M27.5,30.5 L12.5,30.5 L12.5,20 L27.5,20 L27.5,30.5 Z" id="path-1"></path>
    </defs>
    <g id="Icons/Block-ON" stroke="none" stroke-width="1" fill="none" fill-rule="evenodd">
        <g id="" fill-rule="nonzero" fill="#000000">
            <use xlink:href="#path-1"></use>
            <use xlink:href="#path-1"></use>
        </g>
        <polygon id="Path" fill="#000000" fill-rule="nonzero" points="27.5 30.5 12.5 30.5 12.5 20 27.5 20"></polygon>
    </g>
</svg>