<?xml version="1.0" encoding="UTF-8"?>
<svg width="40px" height="40px" viewBox="0 0 40 40" version="1.1" xmlns="http://www.w3.org/2000/svg" xmlns:xlink="http://www.w3.org/1999/xlink">
    <title>Icons/Block OFF</title>
    <defs>
        <path d="M29,32 L29,18.5 L26,18.5 L26,14 C26,13.1484375 25.8476562,12.3574219 25.5429688,11.6269531 C25.2382812,10.8964844 24.8164062,10.2617188 24.2773438,9.72265625 C23.7382812,9.18359375 23.1035156,8.76171875 22.3730469,8.45703125 C21.6425781,8.15234375 20.8515625,8 20,8 C19.1484375,8 18.3574219,8.15234375 17.6269531,8.45703125 C16.8964844,8.76171875 16.2617188,9.18359375 15.7226562,9.72265625 C15.1835938,10.2617188 14.7617188,10.8964844 14.4570312,11.6269531 C14.1523438,12.3574219 14,13.1484375 14,14 L14,14 L15.5,14 C15.5,13.359375 15.6152344,12.765625 15.8457031,12.21875 C16.0761719,11.671875 16.3925781,11.1972656 16.7949219,10.7949219 C17.1972656,10.3925781 17.671875,10.0761719 18.21875,9.84570312 C18.765625,9.61523438 19.359375,9.5 20,9.5 C20.640625,9.5 21.234375,9.61523438 21.78125,9.84570312 C22.328125,10.0761719 22.8027344,10.3925781 23.2050781,10.7949219 C23.6074219,11.1972656 23.9238281,11.671875 24.1542969,12.21875 C24.3847656,12.765625 24.5,13.359375 24.5,14 L24.5,14 L24.5,18.5 L11,18.5 L11,32 L29,32 Z M27.5,30.5 L12.5,30.5 L12.5,20 L27.5,20 L27.5,30.5 Z" id="path-1"></path>
    </defs>
    <g id="Icons/Block-OFF" stroke="none" stroke-width="1" fill="none" fill-rule="evenodd">
        <g id="" fill-rule="nonzero" fill="#000000">
            <use xlink:href="#path-1"></use>
            <use xlink:href="#path-1"></use>
        </g>
    </g>
</svg>