<?xml version="1.0" encoding="UTF-8"?>
<svg width="40px" height="40px" viewBox="0 0 40 40" version="1.1" xmlns="http://www.w3.org/2000/svg" xmlns:xlink="http://www.w3.org/1999/xlink">
    <title>Icons/Compliance</title>
    <defs>
        <path d="M10.25,15.6171875 L13.7773438,12.0898438 L12.7226562,11.0351562 L10.25,13.4960938 L9.27734375,12.5351562 L8.22265625,13.5898438 L10.25,15.6171875 Z M32,14 L32,12.5 L15.5,12.5 L15.5,14 L32,14 Z M10.25,20.1171875 L13.7773438,16.5898438 L12.7226562,15.5351562 L10.25,17.9960938 L9.27734375,17.0351562 L8.22265625,18.0898438 L10.25,20.1171875 Z M32,18.5 L32,17 L15.5,17 L15.5,18.5 L32,18.5 Z M10.25,24.6171875 L13.7773438,21.0898438 L12.7226562,20.0351562 L10.25,22.4960938 L9.27734375,21.5351562 L8.22265625,22.5898438 L10.25,24.6171875 Z M32,23 L32,21.5 L15.5,21.5 L15.5,23 L32,23 Z M10.25,29.1171875 L13.7773438,25.5898438 L12.7226562,24.5351562 L10.25,26.9960938 L9.27734375,26.0351562 L8.22265625,27.0898438 L10.25,29.1171875 Z M32,27.5 L32,26 L15.5,26 L15.5,27.5 L32,27.5 Z" id="path-1"></path>
    </defs>
    <g id="Icons/Compliance" stroke="none" stroke-width="1" fill="none" fill-rule="evenodd">
        <g id="" fill-rule="nonzero" fill="#000000">
            <use xlink:href="#path-1"></use>
            <use xlink:href="#path-1"></use>
        </g>
    </g>
</svg>