<?xml version="1.0" encoding="UTF-8"?>
<svg width="40px" height="40px" viewBox="0 0 40 40" version="1.1" xmlns="http://www.w3.org/2000/svg" xmlns:xlink="http://www.w3.org/1999/xlink">
    <title>Icons/Connection OFF</title>
    <g id="Icons/Connection-OFF" stroke="none" stroke-width="1" fill="none" fill-rule="evenodd">
        <path d="M26.3046875,21.1132812 L28.9648438,18.4648438 C29.4570312,17.9726562 29.8359375,17.4042969 30.1015625,16.7597656 C30.3671875,16.1152344 30.5,15.4453125 30.5,14.75 C30.5,14.1796875 30.4121094,13.6269531 30.2363281,13.0917969 C30.0605469,12.5566406 29.8007812,12.0625 29.4570312,11.609375 L29.4570312,11.609375 L31.7773438,9.27734375 L30.7226562,8.22265625 L28.390625,10.5429688 C27.9375,10.1992188 27.4433594,9.93945312 26.9082031,9.76367188 C26.3730469,9.58789062 25.8203125,9.5 25.25,9.5 C24.5546875,9.5 23.8847656,9.6328125 23.2402344,9.8984375 C22.5957031,10.1640625 22.0273438,10.5429688 21.5351562,11.0351562 L21.5351562,11.0351562 L18.8867188,13.6953125 L26.3046875,21.1132812 Z M26.3046875,18.9921875 L21.0078125,13.6953125 L22.6015625,12.1015625 C22.953125,11.75 23.3574219,11.4785156 23.8144531,11.2871094 C24.2714844,11.0957031 24.75,11 25.25,11 C25.765625,11 26.25,11.0996094 26.703125,11.2988281 C27.15625,11.4980469 27.5527344,11.7675781 27.8925781,12.1074219 C28.2324219,12.4472656 28.5019531,12.84375 28.7011719,13.296875 C28.9003906,13.75 29,14.234375 29,14.75 C29,15.25 28.9042969,15.7285156 28.7128906,16.1855469 C28.5214844,16.6425781 28.25,17.046875 27.8984375,17.3984375 L27.8984375,17.3984375 L26.3046875,18.9921875 Z M9.27734375,31.7773438 L11.609375,29.4570312 C12.0625,29.8007812 12.5566406,30.0605469 13.0917969,30.2363281 C13.6269531,30.4121094 14.1796875,30.5 14.75,30.5 C15.4453125,30.5 16.1152344,30.3671875 16.7597656,30.1015625 C17.4042969,29.8359375 17.9726562,29.4570312 18.4648438,28.9648438 L18.4648438,28.9648438 L21.1132812,26.3046875 L20.0585938,25.25 L23.234375,22.0742188 L22.1796875,21.0078125 L18.9921875,24.1953125 L15.8046875,21.0078125 L18.9921875,17.8203125 L17.9257812,16.765625 L14.75,19.9414062 L13.6953125,18.8867188 L11.0351562,21.5351562 C10.5429688,22.0273438 10.1640625,22.5957031 9.8984375,23.2402344 C9.6328125,23.8847656 9.5,24.5546875 9.5,25.25 C9.5,25.8203125 9.58789062,26.3730469 9.76367188,26.9082031 C9.93945312,27.4433594 10.1992188,27.9375 10.5429688,28.390625 L10.5429688,28.390625 L8.22265625,30.7226562 L9.27734375,31.7773438 Z M14.75,29 C14.234375,29 13.7480469,28.9023438 13.2910156,28.7070312 C12.8339844,28.5117188 12.4355469,28.2441406 12.0957031,27.9042969 C11.7558594,27.5644531 11.4882812,27.1660156 11.2929688,26.7089844 C11.0976562,26.2519531 11,25.765625 11,25.25 C11,24.75 11.0957031,24.2714844 11.2871094,23.8144531 C11.4785156,23.3574219 11.75,22.953125 12.1015625,22.6015625 L12.1015625,22.6015625 L13.6953125,21.0078125 L18.9921875,26.3046875 L17.3984375,27.8984375 C17.046875,28.25 16.6425781,28.5214844 16.1855469,28.7128906 C15.7285156,28.9042969 15.25,29 14.75,29 Z" id="" fill="#000000"></path>
    </g>
</svg>