<?xml version="1.0" encoding="UTF-8"?>
<svg width="40px" height="40px" viewBox="0 0 40 40" version="1.1" xmlns="http://www.w3.org/2000/svg" xmlns:xlink="http://www.w3.org/1999/xlink">
    <title>Icons/Data area</title>
    <defs>
        <path d="M30.5,32 L30.5,14.4335938 L24.0664062,8 L11,8 L11,17.375 C11.234375,17.25 11.4785156,17.140625 11.7324219,17.046875 C11.9863281,16.953125 12.2421875,16.875 12.5,16.8125 L12.5,16.8125 L12.5,9.5 L23,9.5 L23,15.5 L29,15.5 L29,30.5 L18.5,30.5 L18.5,32 L30.5,32 Z M27.9335938,14 L24.5,14 L24.5,10.5664062 L27.9335938,14 Z M17,31.71875 L17,26.3515625 C17.4765625,25.921875 17.8457031,25.4160156 18.1074219,24.8339844 C18.3691406,24.2519531 18.5,23.640625 18.5,23 C18.5,22.3828125 18.3808594,21.8007812 18.1425781,21.2539062 C17.9042969,20.7070312 17.5820312,20.2304688 17.1757812,19.8242188 C16.7695312,19.4179688 16.2929688,19.0957031 15.7460938,18.8574219 C15.1992188,18.6191406 14.6171875,18.5 14,18.5 C13.375,18.5 12.7910156,18.6171875 12.2480469,18.8515625 C11.7050781,19.0859375 11.2285156,19.4082031 10.8183594,19.8183594 C10.4082031,20.2285156 10.0859375,20.7070312 9.8515625,21.2539062 C9.6171875,21.8007812 9.5,22.3828125 9.5,23 C9.5,23.640625 9.63085938,24.2519531 9.89257812,24.8339844 C10.1542969,25.4160156 10.5234375,25.921875 11,26.3515625 L11,26.3515625 L11,31.71875 L14,30.21875 L17,31.71875 Z M14,26 C13.5859375,26 13.1972656,25.921875 12.8339844,25.765625 C12.4707031,25.609375 12.1523438,25.3945312 11.8789062,25.1210938 C11.6054688,24.8476562 11.390625,24.5292969 11.234375,24.1660156 C11.078125,23.8027344 11,23.4140625 11,23 C11,22.5859375 11.078125,22.1972656 11.234375,21.8339844 C11.390625,21.4707031 11.6054688,21.1523438 11.8789062,20.8789062 C12.1523438,20.6054688 12.4707031,20.390625 12.8339844,20.234375 C13.1972656,20.078125 13.5859375,20 14,20 C14.4140625,20 14.8027344,20.078125 15.1660156,20.234375 C15.5292969,20.390625 15.8476562,20.6054688 16.1210938,20.8789062 C16.3945312,21.1523438 16.609375,21.4707031 16.765625,21.8339844 C16.921875,22.1972656 17,22.5859375 17,23 C17,23.4140625 16.921875,23.8027344 16.765625,24.1660156 C16.609375,24.5292969 16.3945312,24.8476562 16.1210938,25.1210938 C15.8476562,25.3945312 15.5292969,25.609375 15.1660156,25.765625 C14.8027344,25.921875 14.4140625,26 14,26 Z M15.5,29.28125 L14,28.53125 L12.5,29.28125 L12.5,27.2421875 C12.9921875,27.4140625 13.5117188,27.5 14.0585938,27.5 C14.5429688,27.5 15.0234375,27.4140625 15.5,27.2421875 L15.5,27.2421875 L15.5,29.28125 Z" id="path-1"></path>
    </defs>
    <g id="Icons/Data-area" stroke="none" stroke-width="1" fill="none" fill-rule="evenodd">
        <g id="" fill-rule="nonzero" fill="#000000">
            <use xlink:href="#path-1"></use>
            <use xlink:href="#path-1"></use>
        </g>
    </g>
</svg>