<?xml version="1.0" encoding="UTF-8"?>
<svg width="40px" height="40px" viewBox="0 0 40 40" version="1.1" xmlns="http://www.w3.org/2000/svg" xmlns:xlink="http://www.w3.org/1999/xlink">
    <title>Icons/Documentation</title>
    <g id="Icons/Documentation" stroke="none" stroke-width="1" fill="none" fill-rule="evenodd">
        <circle id="Oval" stroke="#000000" cx="20" cy="20" r="11.5"></circle>
        <path d="M20.0293945,22.9189453 C19.9541992,22.7412109 19.8790039,22.5241699 19.8038086,22.2678223 C19.7286133,22.0114746 19.6910156,21.7260742 19.6910156,21.4116211 C19.6910156,21.0424805 19.7798828,20.7041016 19.9576172,20.3964844 C20.1353516,20.0888672 20.3592285,19.7932129 20.629248,19.5095215 C20.8992676,19.2258301 21.1915039,18.9404297 21.505957,18.6533203 C21.8204102,18.3662109 22.1126465,18.0568848 22.382666,17.7253418 C22.6526855,17.3937988 22.8765625,17.0297852 23.0542969,16.6333008 C23.2320312,16.2368164 23.3208984,15.7856445 23.3208984,15.2797852 C23.3208984,14.746582 23.2217773,14.2783203 23.0235352,13.875 C22.825293,13.4716797 22.5535644,13.1350098 22.2083496,12.8649902 C21.8631348,12.5949707 21.4615234,12.3916016 21.0035156,12.2548828 C20.5455078,12.1181641 20.0567383,12.0498047 19.537207,12.0498047 C18.4161133,12.0498047 17.3326172,12.3779297 16.2867187,13.0341797 L16.2867187,13.0341797 L16.2867187,14.8388672 C17.134375,13.9296875 18.1358398,13.4750977 19.2911133,13.4750977 C19.6124023,13.4750977 19.9166016,13.5178223 20.2037109,13.6032715 C20.4908203,13.6887207 20.74375,13.8168945 20.9625,13.987793 C21.18125,14.1586914 21.3538574,14.3706055 21.4803223,14.6235352 C21.6067871,14.8764648 21.6700195,15.1669922 21.6700195,15.4951172 C21.6700195,15.8779297 21.5828613,16.2282715 21.4085449,16.5461426 C21.2342285,16.8640137 21.0171875,17.1682129 20.7574219,17.4587402 C20.4976562,17.7492676 20.2139648,18.036377 19.9063477,18.3200684 C19.5987305,18.6037598 19.3150391,18.8994141 19.0552734,19.2070312 C18.7955078,19.5146484 18.5784668,19.8444824 18.4041504,20.1965332 C18.229834,20.548584 18.1426758,20.9433594 18.1426758,21.3808594 C18.1426758,21.6611328 18.1666016,21.9431152 18.2144531,22.2268066 C18.2623047,22.510498 18.3169922,22.7412109 18.3785156,22.9189453 L18.3785156,22.9189453 L20.0293945,22.9189453 Z M19.3013672,27.1845703 C19.6021484,27.1845703 19.86875,27.0751953 20.1011719,26.8564453 C20.3267578,26.6376953 20.4395508,26.3710938 20.4395508,26.0566406 C20.4395508,25.7353516 20.3267578,25.46875 20.1011719,25.2568359 C19.8755859,25.03125 19.6089844,24.918457 19.3013672,24.918457 C18.99375,24.918457 18.7271484,25.03125 18.5015625,25.2568359 C18.2759766,25.46875 18.1631836,25.7353516 18.1631836,26.0566406 C18.1631836,26.3710938 18.2759766,26.6376953 18.5015625,26.8564453 C18.7339844,27.0751953 19.0005859,27.1845703 19.3013672,27.1845703 Z" id="?" fill="#000000" fill-rule="nonzero"></path>
    </g>
</svg>