<?xml version="1.0" encoding="UTF-8"?>
<svg width="40px" height="40px" viewBox="0 0 40 40" version="1.1" xmlns="http://www.w3.org/2000/svg" xmlns:xlink="http://www.w3.org/1999/xlink">
    <title>Icons/EU reporting</title>
    <defs>
        <path d="M30.5,32 L26,18.5 L20,18.5 L20,15.4296875 C20.4375,15.3359375 20.8398438,15.1757812 21.2070312,14.9492188 C21.5742188,14.7226562 21.890625,14.4472656 22.15625,14.1230469 C22.421875,13.7988281 22.6289062,13.4335938 22.7773438,13.0273438 C22.9257812,12.6210938 23,12.1953125 23,11.75 C23,11.234375 22.9003906,10.75 22.7011719,10.296875 C22.5019531,9.84375 22.2324219,9.44726562 21.8925781,9.10742188 C21.5527344,8.76757812 21.15625,8.49804688 20.703125,8.29882812 C20.25,8.09960938 19.765625,8 19.25,8 C18.734375,8 18.2480469,8.09960938 17.7910156,8.29882812 C17.3339844,8.49804688 16.9355469,8.76757812 16.5957031,9.10742188 C16.2558594,9.44726562 15.9882812,9.84375 15.7929688,10.296875 C15.5976562,10.75 15.5,11.234375 15.5,11.75 C15.5,12.1953125 15.5742188,12.6210938 15.7226562,13.0273438 C15.8710938,13.4335938 16.078125,13.7988281 16.34375,14.1230469 C16.609375,14.4472656 16.9257812,14.7226562 17.2929688,14.9492188 C17.6601562,15.1757812 18.0625,15.3359375 18.5,15.4296875 L18.5,15.4296875 L18.5,18.5 L12.5,18.5 L8,32 L30.5,32 Z M19.25,14 C18.9375,14 18.6445312,13.9414062 18.3710938,13.8242188 C18.0976562,13.7070312 17.859375,13.546875 17.65625,13.34375 C17.453125,13.140625 17.2929688,12.9023438 17.1757812,12.6289062 C17.0585938,12.3554688 17,12.0625 17,11.75 C17,11.4375 17.0585938,11.1445312 17.1757812,10.8710938 C17.2929688,10.5976562 17.453125,10.359375 17.65625,10.15625 C17.859375,9.953125 18.0976562,9.79296875 18.3710938,9.67578125 C18.6445312,9.55859375 18.9375,9.5 19.25,9.5 C19.5625,9.5 19.8554688,9.55859375 20.1289062,9.67578125 C20.4023438,9.79296875 20.640625,9.953125 20.84375,10.15625 C21.046875,10.359375 21.2070312,10.5976562 21.3242188,10.8710938 C21.4414062,11.1445312 21.5,11.4375 21.5,11.75 C21.5,12.0625 21.4414062,12.3554688 21.3242188,12.6289062 C21.2070312,12.9023438 21.046875,13.140625 20.84375,13.34375 C20.640625,13.546875 20.4023438,13.7070312 20.1289062,13.8242188 C19.8554688,13.9414062 19.5625,14 19.25,14 Z M28.4140625,30.5 L10.0859375,30.5 L13.578125,20 L18.5,20 L18.5,25.625 C18.5,25.6953125 18.5292969,25.7558594 18.5878906,25.8066406 C18.6464844,25.8574219 18.7167969,25.8964844 18.7988281,25.9238281 C18.8808594,25.9511719 18.9628906,25.9707031 19.0449219,25.9824219 C19.1269531,25.9941406 19.1953125,26 19.25,26 C19.3046875,26 19.3730469,25.9941406 19.4550781,25.9824219 C19.5371094,25.9707031 19.6191406,25.9511719 19.7011719,25.9238281 C19.7832031,25.8964844 19.8535156,25.8574219 19.9121094,25.8066406 C19.9707031,25.7558594 20,25.6953125 20,25.625 L20,25.625 L20,20 L24.921875,20 L28.4140625,30.5 Z" id="path-1"></path>
    </defs>
    <g id="Icons/EU-reporting" stroke="none" stroke-width="1" fill="none" fill-rule="evenodd">
        <g id="" fill-rule="nonzero" fill="#000000">
            <use xlink:href="#path-1"></use>
            <use xlink:href="#path-1"></use>
        </g>
    </g>
</svg>