<?xml version="1.0" encoding="UTF-8"?>
<svg width="40px" height="40px" viewBox="0 0 40 40" version="1.1" xmlns="http://www.w3.org/2000/svg" xmlns:xlink="http://www.w3.org/1999/xlink">
    <title>Icons/Ingredients</title>
    <defs>
        <path d="M29,30.5 L29,20 L26.75,20 L32,14.75 L25.25,8 L20,13.25 L20,11 L9.5,11 L9.5,30.5 L29,30.5 Z M25.25,19.6484375 L20.3515625,14.75 L25.25,9.8515625 L30.1484375,14.75 L25.25,19.6484375 Z M18.5,20 L11,20 L11,12.5 L18.5,12.5 L18.5,20 Z M23.75,20 L20,20 L20,16.25 L23.75,20 Z M18.5,29 L11,29 L11,21.5 L18.5,21.5 L18.5,29 Z M27.5,29 L20,29 L20,21.5 L27.5,21.5 L27.5,29 Z" id="path-1"></path>
    </defs>
    <g id="Icons/Ingredients" stroke="none" stroke-width="1" fill="none" fill-rule="evenodd">
        <g id="îŒ" fill-rule="nonzero" fill="#000000">
            <use xlink:href="#path-1"></use>
            <use xlink:href="#path-1"></use>
        </g>
    </g>
</svg>