<?xml version="1.0" encoding="UTF-8"?>
<svg width="40px" height="40px" viewBox="0 0 40 40" version="1.1" xmlns="http://www.w3.org/2000/svg" xmlns:xlink="http://www.w3.org/1999/xlink">
    <title>Icons/Ingredients</title>
    <g id="Icons/Ingredients" stroke="none" stroke-width="1" fill="none" fill-rule="evenodd">
        <path d="M27.8632812,32 C28.1757812,32 28.46875,31.9414062 28.7421875,31.8242188 C29.015625,31.7070312 29.2539062,31.546875 29.4570312,31.34375 C29.6601562,31.140625 29.8203125,30.9023438 29.9375,30.6289062 C30.0546875,30.3554688 30.1132812,30.0625 30.1132812,29.75 C30.1132812,29.5390625 30.0859375,29.3398438 30.03125,29.1523438 C29.9765625,28.9648438 29.8945312,28.78125 29.7851562,28.6015625 L29.7851562,28.6015625 L23.1171875,16.9882812 C23.0390625,16.8632812 23,16.7265625 23,16.578125 L23,16.578125 L23,9.5 L24.5,9.5 L24.5,8 L15.5,8 L15.5,9.5 L17,9.5 L17,16.578125 C17,16.734375 16.9609375,16.8671875 16.8828125,16.9765625 L16.8828125,16.9765625 L10.2148438,28.6015625 C10.1054688,28.78125 10.0253906,28.9648438 9.97460938,29.1523438 C9.92382812,29.3398438 9.8984375,29.5390625 9.8984375,29.75 C9.8984375,30.0625 9.95703125,30.3554688 10.0742188,30.6289062 C10.1914062,30.9023438 10.3515625,31.140625 10.5546875,31.34375 C10.7578125,31.546875 10.9960938,31.7070312 11.2695312,31.8242188 C11.5429688,31.9414062 11.8359375,32 12.1484375,32 L12.1484375,32 L27.8632812,32 Z M25.6953125,24.5 L14.3046875,24.5 L18.1835938,17.7382812 C18.3945312,17.3789062 18.5,16.9921875 18.5,16.578125 L18.5,16.578125 L18.5,9.5 L21.5,9.5 L21.5,16.578125 C21.5,16.9921875 21.6054688,17.3789062 21.8164062,17.7382812 L21.8164062,17.7382812 L25.6953125,24.5 Z" id="" fill="#000000" fill-rule="nonzero"></path>
    </g>
</svg>