<?xml version="1.0" encoding="UTF-8"?>
<svg width="40px" height="40px" viewBox="0 0 40 40" version="1.1" xmlns="http://www.w3.org/2000/svg" xmlns:xlink="http://www.w3.org/1999/xlink">
    <title>Icons/JTI logo</title>
    <defs>
        <filter id="filter-1">
            <feColorMatrix in="SourceGraphic" type="matrix" values="0 0 0 0 1.000000 0 0 0 0 1.000000 0 0 0 0 1.000000 0 0 0 1.000000 0"></feColorMatrix>
        </filter>
    </defs>
    <g id="Icons/JTI-logo" stroke="none" stroke-width="1" fill="none" fill-rule="evenodd">
        <g filter="url(#filter-1)" id="Group-13">
            <g transform="translate(9.000000, 12.000000)">
                <path d="M19.4524023,0.017581822 C19.6802456,-0.00512947923 19.9128101,-0.00134426237 20.1429788,0.00433356293 C20.9181156,0.00622617136 21.6932524,0.0024409545 22.4683893,0.00433356293 C22.6445567,0.0327226894 22.8277709,0.100856593 22.9099824,0.235231792 C23.0109851,0.346895689 23.0086362,0.486948713 22.9898684,0.617538695 C22.954635,0.704598683 22.8959125,0.787873454 22.8066543,0.848436924 C22.7103259,0.93738952 22.5717643,1.00363081 22.4214113,0.999845598 C21.4912706,0.999845598 20.5587575,0.99795299 19.6262209,0.999845598 C19.4641468,1.00173821 19.2903518,0.958208213 19.1776046,0.859792574 C19.1071376,0.797336496 19.0413449,0.727309984 19.0108092,0.644035213 C18.992018,0.496411755 18.9849948,0.331754822 19.1000674,0.206842665 C19.1752322,0.102749201 19.306794,0.0384005147 19.4524023,0.017581822" id="Fill-1" fill="#32A07B"></path>
                <path d="M19.4524023,0.017581822 C19.6802456,-0.00512947923 19.9128101,-0.00134426237 20.1429788,0.00433356293 C20.9181156,0.00622617136 21.6932524,0.0024409545 22.4683893,0.00433356293 C22.6445567,0.0327226894 22.8277709,0.100856593 22.9099824,0.235231792 C23.0109851,0.346895689 23.0086362,0.486948713 22.9898684,0.617538695 C22.954635,0.704598683 22.8959125,0.787873454 22.8066543,0.848436924 C22.7103259,0.93738952 22.5717643,1.00363081 22.4214113,0.999845598 C21.4912706,0.999845598 20.5587575,0.99795299 19.6262209,0.999845598 C19.4641468,1.00173821 19.2903518,0.958208213 19.1776046,0.859792574 C19.1071376,0.797336496 19.0413449,0.727309984 19.0108092,0.644035213 C18.992018,0.496411755 18.9849948,0.331754822 19.1000674,0.206842665 C19.1752322,0.102749201 19.306794,0.0384005147 19.4524023,0.017581822 Z" id="Stroke-3" stroke="#32A07B" stroke-width="0.094"></path>
                <path d="M9.24208593,2 C12.1001352,2.00247488 14.9557665,2 17.8138157,2.00247488 C17.8766832,2.00247488 17.9395506,2.01732414 18,2.02474877 C17.997582,2.46032716 18,2.89343066 18,3.32900904 C17.1585439,3.34633318 16.3170877,3.32405929 15.4756316,3.33890855 C15.325717,3.3661322 15.1975642,3.47255192 15.1008451,3.58887115 C15.01138,3.69529087 15.0476496,3.84130862 15.0379777,3.96752736 L15.0379777,11.3426613 C15.0428137,11.5084781 15.0210519,11.67182 15.0258878,11.8376368 C15.0234698,11.9465314 15.0428137,12.0579008 15.001708,12.1618457 C14.9654384,12.2657905 14.9412586,12.3821098 14.8638833,12.4637807 C14.791344,12.5454517 14.7115508,12.619698 14.6196676,12.6815699 C14.4141395,12.820163 14.2207014,12.9835049 14.0030834,13.1047739 C13.8459149,13.2210931 13.6645666,13.3002892 13.512234,13.4240331 C13.3913351,13.5230281 13.2438385,13.5750006 13.1253576,13.6715208 C12.9899509,13.7804154 12.8279464,13.8398124 12.6949576,13.9511819 C12.5377891,14.0749257 12.3564408,14.1640213 12.1992723,14.2877652 C12.0856273,14.352112 11.9768183,14.4313081 11.8535015,14.4709061 C11.7156768,14.4783307 11.5536723,14.5006046 11.4424453,14.3991347 C11.3191285,14.2877652 11.2054836,14.1417474 11.2030656,13.968506 L11.2030656,4.09127121 C11.2054836,3.9081303 11.2127375,3.71014013 11.1039285,3.55422287 C10.9806117,3.40078048 10.7750836,3.32653417 10.5840634,3.3339588 C10.1730072,3.33643368 9.76195107,3.3339588 9.34847693,3.3339588 C9.23241402,3.33890855 9.10184324,3.36365732 9.02204999,3.46017753 C8.89873314,3.60124553 8.88422528,3.81161009 8.75123652,3.94772834 C8.61099383,4.1036456 8.39337587,4.16304265 8.19026577,4.15314314 C8.02100735,4.16056778 7.83724107,4.11849486 7.68007254,4.20511557 C7.54708379,4.27936188 7.45761862,4.43032939 7.45520064,4.58377177 L7.45520064,12.679095 C7.45520064,12.7384921 7.45761862,12.800364 7.4382748,12.8572862 C7.37540739,13.0849749 7.36089953,13.3275128 7.24967257,13.5403523 C7.1070119,13.8868351 6.86037821,14.191245 6.5412052,14.3793356 C6.23895802,14.614449 5.90285917,14.7975899 5.59819402,15.0277535 C5.47245919,15.1242737 5.32979853,15.1960451 5.20648168,15.2925653 C5.09283674,15.3816609 4.97435585,15.4682816 4.84620305,15.5301535 C4.75915587,15.5722264 4.68419857,15.6365732 4.60924127,15.6959703 C4.5101042,15.7776412 4.3916233,15.8320885 4.29006825,15.9137595 C4.16191545,16.0177043 4.01683681,16.0919506 3.88626603,16.1934206 C3.70008177,16.3245891 3.49938965,16.4359586 3.31320539,16.5745517 C2.91423912,16.8344138 2.44756949,16.970532 1.9760639,16.9977557 C1.78746167,17.0076552 1.60127741,16.9829064 1.41267517,16.9606325 C1.22890889,16.9383586 1.05965047,16.8566877 0.885556103,16.7948158 C0.680028025,16.7180946 0.501097699,16.5819763 0.341511192,16.4310088 C0.249628052,16.3394384 0.189178617,16.2206443 0.119057273,16.1117497 C-0.0163494601,15.8766363 -0.00425957321,15.5920255 0.00541233631,15.3272136 C0.0392640196,15.0129042 0.252046029,14.7480923 0.505933654,14.5847504 C0.653430274,14.49318 0.810598804,14.4090342 0.984693175,14.3941849 C1.22407294,14.332313 1.47312461,14.3768608 1.70283246,14.4511071 C1.83340324,14.4907051 1.93979424,14.5773258 2.04376727,14.6639465 C2.15015827,14.7480923 2.21302568,14.8743111 2.28556501,14.9856805 C2.37019421,15.1118993 2.40646387,15.2653417 2.4790032,15.4014599 C2.56605038,15.5722264 2.64342566,15.7751664 2.82960992,15.8593122 C2.98436047,15.9211841 3.19230652,15.884061 3.28660764,15.7330935 C3.35431101,15.6118245 3.4195964,15.4856057 3.44861213,15.3470126 C3.49938965,15.09705 3.48246381,14.8396628 3.48488179,14.5847504 C3.48488179,11.2857392 3.48488179,7.98425302 3.48729976,4.68524174 C3.49697167,4.559023 3.4727919,4.42537963 3.39541662,4.32143479 C3.32045932,4.22491458 3.20197843,4.17294216 3.08591552,4.15561802 C2.86829755,4.14571851 2.65309757,4.1580929 2.43789758,4.15066827 C2.21786164,4.12096974 2.00266165,3.97742686 1.92045042,3.75963767 C1.86483694,3.61856967 1.83823919,3.44532827 1.91077851,3.30426027 C1.96155604,3.18546617 2.00749761,3.0518228 2.12356052,2.98252624 C2.23478748,2.92065431 2.35810433,2.87610652 2.48383915,2.86373213 L7.9726478,2.86373213 C8.12014442,2.85383263 8.28698486,2.8563075 8.40546576,2.74988778 C8.54087249,2.66079221 8.56263428,2.48507593 8.64000956,2.35390744 C8.77541629,2.15344239 8.99787021,2.00247488 9.24208593,2" id="Fill-5" fill="#32A07B"></path>
                <path d="M9.24208593,2 C12.1001352,2.00247488 14.9557665,2 17.8138157,2.00247488 C17.8766832,2.00247488 17.9395506,2.01732414 18,2.02474877 C17.997582,2.46032716 18,2.89343066 18,3.32900904 C17.1585439,3.34633318 16.3170877,3.32405929 15.4756316,3.33890855 C15.325717,3.3661322 15.1975642,3.47255192 15.1008451,3.58887115 C15.01138,3.69529087 15.0476496,3.84130862 15.0379777,3.96752736 L15.0379777,11.3426613 C15.0428137,11.5084781 15.0210519,11.67182 15.0258878,11.8376368 C15.0234698,11.9465314 15.0428137,12.0579008 15.001708,12.1618457 C14.9654384,12.2657905 14.9412586,12.3821098 14.8638833,12.4637807 C14.791344,12.5454517 14.7115508,12.619698 14.6196676,12.6815699 C14.4141395,12.820163 14.2207014,12.9835049 14.0030834,13.1047739 C13.8459149,13.2210931 13.6645666,13.3002892 13.512234,13.4240331 C13.3913351,13.5230281 13.2438385,13.5750006 13.1253576,13.6715208 C12.9899509,13.7804154 12.8279464,13.8398124 12.6949576,13.9511819 C12.5377891,14.0749257 12.3564408,14.1640213 12.1992723,14.2877652 C12.0856273,14.352112 11.9768183,14.4313081 11.8535015,14.4709061 C11.7156768,14.4783307 11.5536723,14.5006046 11.4424453,14.3991347 C11.3191285,14.2877652 11.2054836,14.1417474 11.2030656,13.968506 L11.2030656,4.09127121 C11.2054836,3.9081303 11.2127375,3.71014013 11.1039285,3.55422287 C10.9806117,3.40078048 10.7750836,3.32653417 10.5840634,3.3339588 C10.1730072,3.33643368 9.76195107,3.3339588 9.34847693,3.3339588 C9.23241402,3.33890855 9.10184324,3.36365732 9.02204999,3.46017753 C8.89873314,3.60124553 8.88422528,3.81161009 8.75123652,3.94772834 C8.61099383,4.1036456 8.39337587,4.16304265 8.19026577,4.15314314 C8.02100735,4.16056778 7.83724107,4.11849486 7.68007254,4.20511557 C7.54708379,4.27936188 7.45761862,4.43032939 7.45520064,4.58377177 L7.45520064,12.679095 C7.45520064,12.7384921 7.45761862,12.800364 7.4382748,12.8572862 C7.37540739,13.0849749 7.36089953,13.3275128 7.24967257,13.5403523 C7.1070119,13.8868351 6.86037821,14.191245 6.5412052,14.3793356 C6.23895802,14.614449 5.90285917,14.7975899 5.59819402,15.0277535 C5.47245919,15.1242737 5.32979853,15.1960451 5.20648168,15.2925653 C5.09283674,15.3816609 4.97435585,15.4682816 4.84620305,15.5301535 C4.75915587,15.5722264 4.68419857,15.6365732 4.60924127,15.6959703 C4.5101042,15.7776412 4.3916233,15.8320885 4.29006825,15.9137595 C4.16191545,16.0177043 4.01683681,16.0919506 3.88626603,16.1934206 C3.70008177,16.3245891 3.49938965,16.4359586 3.31320539,16.5745517 C2.91423912,16.8344138 2.44756949,16.970532 1.9760639,16.9977557 C1.78746167,17.0076552 1.60127741,16.9829064 1.41267517,16.9606325 C1.22890889,16.9383586 1.05965047,16.8566877 0.885556103,16.7948158 C0.680028025,16.7180946 0.501097699,16.5819763 0.341511192,16.4310088 C0.249628052,16.3394384 0.189178617,16.2206443 0.119057273,16.1117497 C-0.0163494601,15.8766363 -0.00425957321,15.5920255 0.00541233631,15.3272136 C0.0392640196,15.0129042 0.252046029,14.7480923 0.505933654,14.5847504 C0.653430274,14.49318 0.810598804,14.4090342 0.984693175,14.3941849 C1.22407294,14.332313 1.47312461,14.3768608 1.70283246,14.4511071 C1.83340324,14.4907051 1.93979424,14.5773258 2.04376727,14.6639465 C2.15015827,14.7480923 2.21302568,14.8743111 2.28556501,14.9856805 C2.37019421,15.1118993 2.40646387,15.2653417 2.4790032,15.4014599 C2.56605038,15.5722264 2.64342566,15.7751664 2.82960992,15.8593122 C2.98436047,15.9211841 3.19230652,15.884061 3.28660764,15.7330935 C3.35431101,15.6118245 3.4195964,15.4856057 3.44861213,15.3470126 C3.49938965,15.09705 3.48246381,14.8396628 3.48488179,14.5847504 C3.48488179,11.2857392 3.48488179,7.98425302 3.48729976,4.68524174 C3.49697167,4.559023 3.4727919,4.42537963 3.39541662,4.32143479 C3.32045932,4.22491458 3.20197843,4.17294216 3.08591552,4.15561802 C2.86829755,4.14571851 2.65309757,4.1580929 2.43789758,4.15066827 C2.21786164,4.12096974 2.00266165,3.97742686 1.92045042,3.75963767 C1.86483694,3.61856967 1.83823919,3.44532827 1.91077851,3.30426027 C1.96155604,3.18546617 2.00749761,3.0518228 2.12356052,2.98252624 C2.23478748,2.92065431 2.35810433,2.87610652 2.48383915,2.86373213 L7.9726478,2.86373213 C8.12014442,2.85383263 8.28698486,2.8563075 8.40546576,2.74988778 C8.54087249,2.66079221 8.56263428,2.48507593 8.64000956,2.35390744 C8.77541629,2.15344239 8.99787021,2.00247488 9.24208593,2 Z" id="Stroke-7" stroke="#32A07B" stroke-width="0.094"></path>
                <path d="M19.0022404,2.08262236 C18.9895705,2.03408837 19.0326483,1.99768788 19.0808194,2.00011458 C20.3300504,2.00254128 21.5793068,2.00011458 22.8285632,2.00254128 C22.8818023,2.00254128 22.932482,2.01224808 22.9856705,2.01952818 C22.9983404,2.11416946 23.0008997,2.20881074 22.9983404,2.30345202 L22.9983404,9.38941466 C22.9983404,9.47920255 23.0034084,9.5690147 22.9958318,9.65877831 C22.9628899,9.89174147 22.8209612,10.1101444 22.6106402,10.2314794 C22.4788728,10.3042804 22.3521733,10.381959 22.2204059,10.45476 C22.0556967,10.5396702 21.9137933,10.6585785 21.751618,10.7483664 C21.5185164,10.8818349 21.2929661,11.0225835 21.0674411,11.1657587 C20.9635476,11.236133 20.8596794,11.3065073 20.7456499,11.3671748 C20.5733133,11.4569627 20.426342,11.5855777 20.2489628,11.6705122 C20.0766516,11.7505933 19.9499521,11.9010487 19.767505,11.9592895 C19.6332036,12.0078235 19.4836982,12.0078235 19.3443289,11.9859832 C19.1264059,11.9083288 18.9997064,11.680219 19.0022404,11.4642428 L19.0022404,2.08262236 Z" id="Fill-9" fill="#32A07B"></path>
                <path d="M19.0022404,2.08262236 C18.9895705,2.03408837 19.0326483,1.99768788 19.0808194,2.00011458 C20.3300504,2.00254128 21.5793068,2.00011458 22.8285632,2.00254128 C22.8818023,2.00254128 22.932482,2.01224808 22.9856705,2.01952818 C22.9983404,2.11416946 23.0008997,2.20881074 22.9983404,2.30345202 L22.9983404,9.38941466 C22.9983404,9.47920255 23.0034084,9.5690147 22.9958318,9.65877831 C22.9628899,9.89174147 22.8209612,10.1101444 22.6106402,10.2314794 C22.4788728,10.3042804 22.3521733,10.381959 22.2204059,10.45476 C22.0556967,10.5396702 21.9137933,10.6585785 21.751618,10.7483664 C21.5185164,10.8818349 21.2929661,11.0225835 21.0674411,11.1657587 C20.9635476,11.236133 20.8596794,11.3065073 20.7456499,11.3671748 C20.5733133,11.4569627 20.426342,11.5855777 20.2489628,11.6705122 C20.0766516,11.7505933 19.9499521,11.9010487 19.767505,11.9592895 C19.6332036,12.0078235 19.4836982,12.0078235 19.3443289,11.9859832 C19.1264059,11.9083288 18.9997064,11.680219 19.0022404,11.4642428 L19.0022404,2.08262236 Z" id="Stroke-11" stroke="#32A07B" stroke-width="0.094"></path>
            </g>
        </g>
    </g>
</svg>