<?xml version="1.0" encoding="UTF-8"?>
<svg width="40px" height="40px" viewBox="0 0 40 40" version="1.1" xmlns="http://www.w3.org/2000/svg" xmlns:xlink="http://www.w3.org/1999/xlink">
    <title>Icons/Pin OFF</title>
    <defs>
        <path d="M8,32 L9.59375,31.4726562 L16.25,24.8046875 L20.7734375,29.328125 C21.1171875,28.984375 21.4257812,28.6464844 21.6992188,28.3144531 C21.9726562,27.9824219 22.2050781,27.6328125 22.3964844,27.265625 C22.5878906,26.8984375 22.734375,26.5078125 22.8359375,26.09375 C22.9375,25.6796875 22.9882812,25.21875 22.9882812,24.7109375 C22.9882812,24.3984375 22.9648438,24.0859375 22.9179688,23.7734375 C22.8710938,23.4609375 22.796875,23.15625 22.6953125,22.859375 L22.6953125,22.859375 L27.1367188,18.4179688 C27.3789062,18.4648438 27.6328125,18.4882812 27.8984375,18.4882812 C28.2890625,18.4882812 28.6386719,18.4472656 28.9472656,18.3652344 C29.2558594,18.2832031 29.5410156,18.1679688 29.8027344,18.0195312 C30.0644531,17.8710938 30.3183594,17.6894531 30.5644531,17.4746094 C30.8105469,17.2597656 31.0625,17.0234375 31.3203125,16.765625 L31.3203125,16.765625 L23.234375,8.6796875 C22.9765625,8.9375 22.7402344,9.18945312 22.5253906,9.43554688 C22.3105469,9.68164062 22.1289062,9.9375 21.9804688,10.203125 C21.8320312,10.46875 21.7167969,10.7558594 21.6347656,11.0644531 C21.5527344,11.3730469 21.5117188,11.71875 21.5117188,12.1015625 C21.5117188,12.3671875 21.5351562,12.6210938 21.5820312,12.8632812 L21.5820312,12.8632812 L17.140625,17.3046875 C16.5546875,17.109375 15.9414062,17.0117188 15.3007812,17.0117188 C14.5273438,17.0117188 13.7871094,17.15625 13.0800781,17.4453125 C12.3730469,17.734375 11.7460938,18.1523438 11.1992188,18.6992188 L11.1992188,18.6992188 L10.671875,19.2265625 L15.1953125,23.75 L8.52734375,30.40625 L8,32 Z M20.7265625,27.1601562 L12.8398438,19.2734375 C13.1992188,19.0234375 13.5878906,18.8339844 14.0058594,18.7050781 C14.4238281,18.5761719 14.8554688,18.5117188 15.3007812,18.5117188 C15.5117188,18.5117188 15.7089844,18.5253906 15.8925781,18.5527344 C16.0761719,18.5800781 16.2539062,18.6171875 16.4257812,18.6640625 C16.5976562,18.7109375 16.7695312,18.7695312 16.9414062,18.8398438 C17.1132812,18.9101562 17.296875,18.984375 17.4921875,19.0625 L17.4921875,19.0625 L23.2578125,13.3085938 C23.1953125,13.1054688 23.1386719,12.9082031 23.0878906,12.7167969 C23.0371094,12.5253906 23.0117188,12.3203125 23.0117188,12.1015625 C23.0117188,11.671875 23.1132812,11.265625 23.3164062,10.8828125 L23.3164062,10.8828125 L29.1171875,16.6835938 C28.734375,16.8867188 28.328125,16.9882812 27.8984375,16.9882812 C27.6796875,16.9882812 27.4746094,16.9628906 27.2832031,16.9121094 C27.0917969,16.8613281 26.8945312,16.8046875 26.6914062,16.7421875 L26.6914062,16.7421875 L20.9375,22.5078125 C21.015625,22.703125 21.0898438,22.8867188 21.1601562,23.0585938 C21.2304688,23.2304688 21.2910156,23.4042969 21.3417969,23.5800781 C21.3925781,23.7558594 21.4316406,23.9355469 21.4589844,24.1191406 C21.4863281,24.3027344 21.5,24.5 21.5,24.7109375 C21.5,25.1484375 21.4335938,25.5761719 21.3007812,25.9941406 C21.1679688,26.4121094 20.9765625,26.8007812 20.7265625,27.1601562 L20.7265625,27.1601562 Z" id="path-1"></path>
    </defs>
    <g id="Icons/Pin-OFF" stroke="none" stroke-width="1" fill="none" fill-rule="evenodd">
        <g id="" fill-rule="nonzero" fill="#000000">
            <use xlink:href="#path-1"></use>
            <use xlink:href="#path-1"></use>
        </g>
    </g>
</svg>