<?xml version="1.0" encoding="UTF-8"?>
<svg width="40px" height="40px" viewBox="0 0 40 40" version="1.1" xmlns="http://www.w3.org/2000/svg" xmlns:xlink="http://www.w3.org/1999/xlink">
    <title>Icons/Pin ON</title>
    <defs>
        <path d="M8,32 L9.59375,31.4726562 L16.25,24.8046875 L20.7734375,29.328125 C21.1171875,28.984375 21.4257812,28.6464844 21.6992188,28.3144531 C21.9726562,27.9824219 22.2050781,27.6328125 22.3964844,27.265625 C22.5878906,26.8984375 22.734375,26.5078125 22.8359375,26.09375 C22.9375,25.6796875 22.9882812,25.21875 22.9882812,24.7109375 C22.9882812,24.3984375 22.9648438,24.0859375 22.9179688,23.7734375 C22.8710938,23.4609375 22.796875,23.15625 22.6953125,22.859375 L22.6953125,22.859375 L27.1367188,18.4179688 C27.3789062,18.4648438 27.6328125,18.4882812 27.8984375,18.4882812 C28.2890625,18.4882812 28.6386719,18.4472656 28.9472656,18.3652344 C29.2558594,18.2832031 29.5410156,18.1679688 29.8027344,18.0195312 C30.0644531,17.8710938 30.3183594,17.6894531 30.5644531,17.4746094 C30.8105469,17.2597656 31.0625,17.0234375 31.3203125,16.765625 L31.3203125,16.765625 L23.234375,8.6796875 C22.9765625,8.9375 22.7402344,9.18945312 22.5253906,9.43554688 C22.3105469,9.68164062 22.1289062,9.9375 21.9804688,10.203125 C21.8320312,10.46875 21.7167969,10.7558594 21.6347656,11.0644531 C21.5527344,11.3730469 21.5117188,11.71875 21.5117188,12.1015625 C21.5117188,12.3671875 21.5351562,12.6210938 21.5820312,12.8632812 L21.5820312,12.8632812 L17.140625,17.3046875 C16.5546875,17.109375 15.9414062,17.0117188 15.3007812,17.0117188 C14.5273438,17.0117188 13.7871094,17.15625 13.0800781,17.4453125 C12.3730469,17.734375 11.7460938,18.1523438 11.1992188,18.6992188 L11.1992188,18.6992188 L10.671875,19.2265625 L15.1953125,23.75 L8.52734375,30.40625 L8,32 Z" id="path-1"></path>
    </defs>
    <g id="Icons/Pin-ON" stroke="none" stroke-width="1" fill="none" fill-rule="evenodd">
        <g id="" fill-rule="nonzero" fill="#000000">
            <use xlink:href="#path-1"></use>
            <use xlink:href="#path-1"></use>
        </g>
    </g>
</svg>