<?xml version="1.0" encoding="UTF-8"?>
<svg width="40px" height="40px" viewBox="0 0 40 40" version="1.1" xmlns="http://www.w3.org/2000/svg" xmlns:xlink="http://www.w3.org/1999/xlink">
    <title>Icons/Power users</title>
    <g id="Icons/Power-users" stroke="none" stroke-width="1" fill="none" fill-rule="evenodd">
        <path d="M14,30.5 C14,29.6640625 14.15625,28.8808594 14.46875,28.1503906 C14.78125,27.4199219 15.2070312,26.7851562 15.7460938,26.2460938 C16.2851562,25.7070312 16.9199219,25.28125 17.6503906,24.96875 C18.3808594,24.65625 19.1640625,24.5 20,24.5 C20.8515625,24.5 21.6425781,24.6523438 22.3730469,24.9570312 C23.1035156,25.2617188 23.7382812,25.6835938 24.2773438,26.2226562 C24.8164062,26.7617188 25.2382812,27.3964844 25.5429688,28.1269531 C25.8476562,28.8574219 26,29.6484375 26,30.5 L26,30.5 L30.5,30.5 L30.5,9.5 L9.5,9.5 L9.5,30.5 L14,30.5 Z M12.640625,29 L11,29 L11,11 L29,11 L29,29 L27.359375,29 C27.2421875,28.40625 27.0585938,27.8378906 26.8085938,27.2949219 C26.5585938,26.7519531 26.2519531,26.25 25.8886719,25.7890625 C25.5253906,25.328125 25.109375,24.9160156 24.640625,24.5527344 C24.171875,24.1894531 23.6601562,23.8828125 23.1054688,23.6328125 C23.5507812,23.3671875 23.953125,23.046875 24.3125,22.671875 C24.671875,22.296875 24.9765625,21.8867188 25.2265625,21.4414062 C25.4765625,20.9960938 25.6679688,20.5253906 25.8007812,20.0292969 C25.9335938,19.5332031 26,19.0234375 26,18.5 C26,17.671875 25.84375,16.8925781 25.53125,16.1621094 C25.21875,15.4316406 24.7910156,14.7949219 24.2480469,14.2519531 C23.7050781,13.7089844 23.0683594,13.28125 22.3378906,12.96875 C21.6074219,12.65625 20.828125,12.5 20,12.5 C19.171875,12.5 18.3925781,12.65625 17.6621094,12.96875 C16.9316406,13.28125 16.2949219,13.7089844 15.7519531,14.2519531 C15.2089844,14.7949219 14.78125,15.4316406 14.46875,16.1621094 C14.15625,16.8925781 14,17.671875 14,18.5 C14,19.0234375 14.0664062,19.5351562 14.1992188,20.0351562 C14.3320312,20.5351562 14.5253906,21.0097656 14.7792969,21.4589844 C15.0332031,21.9082031 15.3398438,22.3183594 15.6992188,22.6894531 C16.0585938,23.0605469 16.4648438,23.3789062 16.9179688,23.6445312 C16.3632812,23.8867188 15.8515625,24.1914062 15.3828125,24.5585938 C14.9140625,24.9257812 14.4960938,25.3398438 14.1289062,25.8007812 C13.7617188,26.2617188 13.4511719,26.7636719 13.1972656,27.3066406 C12.9433594,27.8496094 12.7578125,28.4140625 12.640625,29 L12.640625,29 Z M20,23 C19.3828125,23 18.8007812,22.8808594 18.2539062,22.6425781 C17.7070312,22.4042969 17.2304688,22.0820312 16.8242188,21.6757812 C16.4179688,21.2695312 16.0957031,20.7929688 15.8574219,20.2460938 C15.6191406,19.6992188 15.5,19.1171875 15.5,18.5 C15.5,17.8828125 15.6191406,17.3007812 15.8574219,16.7539062 C16.0957031,16.2070312 16.4179688,15.7304688 16.8242188,15.3242188 C17.2304688,14.9179688 17.7070312,14.5957031 18.2539062,14.3574219 C18.8007812,14.1191406 19.3828125,14 20,14 C20.6171875,14 21.1992188,14.1191406 21.7460938,14.3574219 C22.2929688,14.5957031 22.7695312,14.9179688 23.1757812,15.3242188 C23.5820312,15.7304688 23.9042969,16.2070312 24.1425781,16.7539062 C24.3808594,17.3007812 24.5,17.8828125 24.5,18.5 C24.5,19.1171875 24.3808594,19.6992188 24.1425781,20.2460938 C23.9042969,20.7929688 23.5820312,21.2695312 23.1757812,21.6757812 C22.7695312,22.0820312 22.2929688,22.4042969 21.7460938,22.6425781 C21.1992188,22.8808594 20.6171875,23 20,23 Z" id="" fill="#000000" fill-rule="nonzero"></path>
    </g>
</svg>