<?xml version="1.0" encoding="UTF-8"?>
<svg width="40px" height="40px" viewBox="0 0 40 40" version="1.1" xmlns="http://www.w3.org/2000/svg" xmlns:xlink="http://www.w3.org/1999/xlink">
    <title>Icons/SAP non</title>
    <defs>
        <path d="M19.25,23.375 L20,22.625 L20,20 L30.5,20 L30.5,12.5 C30.5,12.2890625 30.4609375,12.09375 30.3828125,11.9140625 C30.3046875,11.734375 30.1972656,11.5761719 30.0605469,11.4394531 C29.9238281,11.3027344 29.765625,11.1953125 29.5859375,11.1171875 C29.40625,11.0390625 29.2109375,11 29,11 L29,11 L9.5,11 C9.2890625,11 9.09375,11.0390625 8.9140625,11.1171875 C8.734375,11.1953125 8.57617188,11.3027344 8.43945312,11.4394531 C8.30273438,11.5761719 8.1953125,11.734375 8.1171875,11.9140625 C8.0390625,12.09375 8,12.2890625 8,12.5 L8,12.5 L8,20 L18.5,20 L18.5,22.625 L19.25,23.375 Z M29,18.5 L9.5,18.5 L9.5,12.5 L29,12.5 L29,18.5 Z M26.75,15.5 C26.953125,15.5 27.1289062,15.4257812 27.2773438,15.2773438 C27.4257812,15.1289062 27.5,14.953125 27.5,14.75 C27.5,14.546875 27.4257812,14.3710938 27.2773438,14.2226562 C27.1289062,14.0742188 26.953125,14 26.75,14 C26.546875,14 26.3710938,14.0742188 26.2226562,14.2226562 C26.0742188,14.3710938 26,14.546875 26,14.75 C26,14.953125 26.0742188,15.1289062 26.2226562,15.2773438 C26.3710938,15.4257812 26.546875,15.5 26.75,15.5 Z M21.9101562,30.4648438 L22.9648438,29.4101562 L20.3046875,26.75 L22.9648438,24.0898438 L21.9101562,23.0351562 L19.25,25.6953125 L16.5898438,23.0351562 L15.5351562,24.0898438 L18.1953125,26.75 L15.5351562,29.4101562 L16.5898438,30.4648438 L19.25,27.8046875 L21.9101562,30.4648438 Z M30.5,27.5 L30.5,26 L23.375,26 L22.625,26.75 L23.375,27.5 L30.5,27.5 Z M15.125,27.5 L15.875,26.75 L15.125,26 L8,26 L8,27.5 L15.125,27.5 Z" id="path-1"></path>
    </defs>
    <g id="Icons/SAP-non" stroke="none" stroke-width="1" fill="none" fill-rule="evenodd">
        <g id="î£" fill-rule="nonzero" fill="#000000">
            <use xlink:href="#path-1"></use>
            <use xlink:href="#path-1"></use>
        </g>
    </g>
</svg>