<?xml version="1.0" encoding="UTF-8"?>
<svg width="40px" height="40px" viewBox="0 0 40 40" version="1.1" xmlns="http://www.w3.org/2000/svg" xmlns:xlink="http://www.w3.org/1999/xlink">
    <title>Icons/Translation</title>
    <defs>
        <path d="M22.6015625,22.9179688 C23.4296875,22.4726562 24.2246094,21.9785156 24.9863281,21.4355469 C25.7480469,20.8925781 26.4453125,20.2695312 27.078125,19.5664062 C28.0859375,20.7382812 29.2460938,21.7382812 30.5585938,22.5664062 C30.7226562,22.3867188 30.8828125,22.203125 31.0390625,22.015625 L31.0390625,22.015625 L31.5078125,21.453125 C30.796875,21.1171875 30.1328125,20.7148438 29.515625,20.2460938 C28.8984375,19.7773438 28.3320312,19.2460938 27.8164062,18.6523438 C28.2148438,18.1132812 28.5800781,17.4785156 28.9121094,16.7480469 C29.2441406,16.0175781 29.5273438,15.2558594 29.7617188,14.4628906 C29.9960938,13.6699219 30.1777344,12.8730469 30.3066406,12.0722656 C30.4355469,11.2714844 30.5,10.5273438 30.5,9.83984375 L30.5,9.83984375 L30.5,9.5 L23.5976562,9.5 L23.5976562,10.6132812 L23.9960938,10.6132812 C24.0429688,11.2929688 24.1152344,11.9863281 24.2128906,12.6933594 C24.3105469,13.4003906 24.4511719,14.0996094 24.6347656,14.7910156 C24.8183594,15.4824219 25.0488281,16.1542969 25.3261719,16.8066406 C25.6035156,17.4589844 25.9414062,18.0664062 26.3398438,18.6289062 C25.7148438,19.3398438 25.0175781,19.9589844 24.2480469,20.4863281 C23.4785156,21.0136719 22.671875,21.484375 21.828125,21.8984375 C22.09375,22.2265625 22.3515625,22.5664062 22.6015625,22.9179688 Z M17.7617188,22.4140625 C19.0507812,21.1796875 20.125,19.7890625 20.984375,18.2421875 C21.2578125,18.6875 21.5253906,19.1328125 21.7871094,19.578125 C22.0488281,20.0234375 22.3125,20.46875 22.578125,20.9140625 L22.578125,20.9140625 L23.5390625,20.1640625 C23.21875,19.625 22.8964844,19.09375 22.5722656,18.5703125 C22.2480469,18.046875 21.9179688,17.5234375 21.5820312,17 C21.9570312,16.1484375 22.2578125,15.2734375 22.484375,14.375 C22.7109375,13.4765625 22.8984375,12.5664062 23.046875,11.6445312 C23.0703125,11.4882812 23.0976562,11.3203125 23.1289062,11.140625 C23.1601562,10.9609375 23.1796875,10.7929688 23.1875,10.6367188 L23.1875,10.6367188 L23.1875,9.5234375 L17.09375,9.5234375 L17.09375,10.6367188 L22.015625,10.6367188 C21.9296875,11.5273438 21.7949219,12.4082031 21.6113281,13.2792969 C21.4277344,14.1503906 21.1757812,15.0039062 20.8554688,15.8398438 C20.4101562,15.1523438 19.96875,14.4746094 19.53125,13.8066406 C19.09375,13.1386719 18.6484375,12.46875 18.1953125,11.796875 L18.1953125,11.796875 L17.2695312,12.3710938 C17.7929688,13.1523438 18.3046875,13.9394531 18.8046875,14.7324219 C19.3046875,15.5253906 19.8007812,16.3242188 20.2929688,17.1289062 C19.8710938,17.9804688 19.3632812,18.7753906 18.7695312,19.5136719 C18.1757812,20.2519531 17.5351562,20.9492188 16.8476562,21.6054688 C17.1757812,21.8554688 17.4804688,22.125 17.7617188,22.4140625 Z M27.0664062,17.6914062 C26.7304688,17.1992188 26.4472656,16.6621094 26.2167969,16.0800781 C25.9863281,15.4980469 25.7949219,14.8984375 25.6425781,14.28125 C25.4902344,13.6640625 25.3691406,13.0429688 25.2792969,12.4179688 C25.1894531,11.7929688 25.1210938,11.1914062 25.0742188,10.6132812 L25.0742188,10.6132812 L29.2695312,10.6132812 C29.2070312,11.2226562 29.1210938,11.8378906 29.0117188,12.4589844 C28.9023438,13.0800781 28.7597656,13.6914062 28.5839844,14.2929688 C28.4082031,14.8945312 28.1953125,15.4824219 27.9453125,16.0566406 C27.6953125,16.6308594 27.4023438,17.1757812 27.0664062,17.6914062 Z M11.5039062,30.5 L12.5,27.5 L17,27.5 L17.9960938,30.5 L19.625,30.5 L15.6289062,18.5 L13.8710938,18.5 L9.875,30.5 L11.5039062,30.5 Z M16.4960938,26 L13.0039062,26 L14.75,20.75 L16.4960938,26 Z" id="path-1"></path>
    </defs>
    <g id="Icons/Translation" stroke="none" stroke-width="1" fill="none" fill-rule="evenodd">
        <g id="" fill-rule="nonzero" fill="#000000">
            <use xlink:href="#path-1"></use>
            <use xlink:href="#path-1"></use>
        </g>
    </g>
</svg>