<?xml version="1.0" encoding="UTF-8"?>
<svg width="40px" height="40px" viewBox="0 0 40 40" version="1.1" xmlns="http://www.w3.org/2000/svg" xmlns:xlink="http://www.w3.org/1999/xlink">
    <title>Icons/Delete</title>
    <defs>
        <path d="M25.25,32 C25.5625,32 25.8554688,31.9414062 26.1289062,31.8242188 C26.4023438,31.7070312 26.640625,31.546875 26.84375,31.34375 C27.046875,31.140625 27.2070312,30.9023438 27.3242188,30.6289062 C27.4414062,30.3554688 27.5,30.0625 27.5,29.75 L27.5,29.75 L27.5,12.5 L29,12.5 L29,11 L23,11 L23,9.5 C23,9.2890625 22.9609375,9.09375 22.8828125,8.9140625 C22.8046875,8.734375 22.6972656,8.57617188 22.5605469,8.43945312 C22.4238281,8.30273438 22.265625,8.1953125 22.0859375,8.1171875 C21.90625,8.0390625 21.7109375,8 21.5,8 L21.5,8 L17,8 C16.7890625,8 16.59375,8.0390625 16.4140625,8.1171875 C16.234375,8.1953125 16.0761719,8.30273438 15.9394531,8.43945312 C15.8027344,8.57617188 15.6953125,8.734375 15.6171875,8.9140625 C15.5390625,9.09375 15.5,9.2890625 15.5,9.5 L15.5,9.5 L15.5,11 L9.5,11 L9.5,12.5 L11,12.5 L11,29.75 C11,30.0625 11.0585938,30.3554688 11.1757812,30.6289062 C11.2929688,30.9023438 11.453125,31.140625 11.65625,31.34375 C11.859375,31.546875 12.0976562,31.7070312 12.3710938,31.8242188 C12.6445312,31.9414062 12.9375,32 13.25,32 L13.25,32 L25.25,32 Z M21.5,11 L17,11 L17,9.5 L21.5,9.5 L21.5,11 Z M25.25,30.5 L13.25,30.5 C13.046875,30.5 12.8710938,30.4257812 12.7226562,30.2773438 C12.5742188,30.1289062 12.5,29.953125 12.5,29.75 L12.5,29.75 L12.5,12.5 L26,12.5 L26,29.75 C26,29.953125 25.9257812,30.1289062 25.7773438,30.2773438 C25.6289062,30.4257812 25.453125,30.5 25.25,30.5 L25.25,30.5 Z M17,27.5 L17,15.5 L15.5,15.5 L15.5,27.5 L17,27.5 Z M20,27.5 L20,15.5 L18.5,15.5 L18.5,27.5 L20,27.5 Z M23,27.5 L23,15.5 L21.5,15.5 L21.5,27.5 L23,27.5 Z" id="path-1"></path>
    </defs>
    <g id="Icons/Delete" stroke="none" stroke-width="1" fill="none" fill-rule="evenodd">
        <g id="î" fill-rule="nonzero" fill="#000000">
            <use xlink:href="#path-1"></use>
            <use xlink:href="#path-1"></use>
        </g>
    </g>
</svg>