<?xml version="1.0" encoding="UTF-8"?>
<svg width="40px" height="40px" viewBox="0 0 40 40" version="1.1" xmlns="http://www.w3.org/2000/svg" xmlns:xlink="http://www.w3.org/1999/xlink">
    <title>Icons/Documentation</title>
    <defs>
        <path d="M20,25 L20,23.5 C20,23.125 20.0572917,22.7864583 20.171875,22.484375 C20.2864583,22.1822917 20.4375,21.9010417 20.625,21.640625 C20.8125,21.3802083 21.0260417,21.1341146 21.265625,20.9023438 C21.5052083,20.6705729 21.75,20.4375 22,20.203125 C22.25,19.96875 22.4947917,19.7265625 22.734375,19.4765625 C22.9739583,19.2265625 23.1875,18.9544271 23.375,18.6601562 C23.5625,18.3658854 23.7135417,18.0416667 23.828125,17.6875 C23.9427083,17.3333333 24,16.9375 24,16.5 C24,16.0885417 23.9466146,15.6914062 23.8398438,15.3085938 C23.7330729,14.9257812 23.5820312,14.5677083 23.3867188,14.234375 C23.1914062,13.9010417 22.9557292,13.5963542 22.6796875,13.3203125 C22.4036458,13.0442708 22.0989583,12.8085938 21.765625,12.6132812 C21.4322917,12.4179688 21.0742188,12.2669271 20.6914062,12.1601562 C20.3085938,12.0533854 19.9114583,12 19.5,12 C19.0885417,12 18.6914062,12.0533854 18.3085938,12.1601562 C17.9257812,12.2669271 17.5677083,12.4179688 17.234375,12.6132812 C16.9010417,12.8085938 16.5963542,13.0442708 16.3203125,13.3203125 C16.0442708,13.5963542 15.8085938,13.9010417 15.6132812,14.234375 C15.4179688,14.5677083 15.2669271,14.9257812 15.1601562,15.3085938 C15.0533854,15.6914062 15,16.0885417 15,16.5 L15,16.5 L16,16.5 C16,16.015625 16.0924479,15.5611979 16.2773438,15.1367188 C16.4622396,14.7122396 16.7122396,14.3424479 17.0273438,14.0273438 C17.3424479,13.7122396 17.7122396,13.4622396 18.1367188,13.2773438 C18.5611979,13.0924479 19.015625,13 19.5,13 C19.984375,13 20.4388021,13.0924479 20.8632812,13.2773438 C21.2877604,13.4622396 21.6575521,13.7122396 21.9726562,14.0273438 C22.2877604,14.3424479 22.5377604,14.7122396 22.7226562,15.1367188 C22.9075521,15.5611979 23,16.015625 23,16.5 C23,16.875 22.9427083,17.2135417 22.828125,17.515625 C22.7135417,17.8177083 22.5625,18.0989583 22.375,18.359375 C22.1875,18.6197917 21.9739583,18.8671875 21.734375,19.1015625 C21.4947917,19.3359375 21.25,19.5703125 21,19.8046875 C20.75,20.0390625 20.5052083,20.2799479 20.265625,20.5273438 C20.0260417,20.7747396 19.8125,21.0455729 19.625,21.3398438 C19.4375,21.6341146 19.2864583,21.9583333 19.171875,22.3125 C19.0572917,22.6666667 19,23.0625 19,23.5 L19,23.5 L19,25 L20,25 Z M20,28 L20,27 L19,27 L19,28 L20,28 Z" id="path-1"></path>
    </defs>
    <g id="Icons/Documentation" stroke="none" stroke-width="1" fill="none" fill-rule="evenodd">
        <circle id="Oval" stroke="#000000" stroke-width="1.3" cx="20" cy="20" r="12.35"></circle>
        <g id="" fill-rule="nonzero" fill="#000000">
            <use xlink:href="#path-1"></use>
            <use stroke="#000000" stroke-width="0.5" xlink:href="#path-1"></use>
        </g>
    </g>
</svg>