<?xml version="1.0" encoding="UTF-8"?>
<svg width="40px" height="40px" viewBox="0 0 40 40" version="1.1" xmlns="http://www.w3.org/2000/svg" xmlns:xlink="http://www.w3.org/1999/xlink">
    <title>Icons/Run Workflow</title>
    <defs>
        <path d="M11.0585938,26.7382812 L12.125,25.671875 C11.7109375,25.3203125 11.3417969,24.9296875 11.0175781,24.5 C10.6933594,24.0703125 10.4199219,23.6113281 10.1972656,23.1230469 C9.97460938,22.6347656 9.80273438,22.1269531 9.68164062,21.5996094 C9.56054688,21.0722656 9.5,20.5390625 9.5,20 C9.5,19.3125 9.58984375,18.6484375 9.76953125,18.0078125 C9.94921875,17.3671875 10.2011719,16.7695312 10.5253906,16.2148438 C10.8496094,15.6601562 11.2402344,15.1542969 11.6972656,14.6972656 C12.1542969,14.2402344 12.6601562,13.8496094 13.2148438,13.5253906 C13.7695312,13.2011719 14.3671875,12.9492188 15.0078125,12.7695312 C15.6484375,12.5898438 16.3125,12.5 17,12.5 L17,12.5 L24.5703125,12.5 L22.6601562,14.4101562 L23.7148438,15.4648438 L27.4296875,11.75 L23.7148438,8.03515625 L22.6601562,9.08984375 L24.5703125,11 L17,11 C16.171875,11 15.375,11.1074219 14.609375,11.3222656 C13.84375,11.5371094 13.1269531,11.8398438 12.4589844,12.2304688 C11.7910156,12.6210938 11.1835938,13.0898438 10.6367188,13.6367188 C10.0898438,14.1835938 9.62109375,14.7910156 9.23046875,15.4589844 C8.83984375,16.1269531 8.53710938,16.84375 8.32226562,17.609375 C8.10742188,18.375 8,19.171875 8,20 C8,20.6484375 8.06835938,21.2832031 8.20507812,21.9042969 C8.34179688,22.5253906 8.54296875,23.1230469 8.80859375,23.6972656 C9.07421875,24.2714844 9.39453125,24.8144531 9.76953125,25.3261719 C10.1445312,25.8378906 10.5742188,26.3085938 11.0585938,26.7382812 L11.0585938,26.7382812 Z M16.2851562,31.9648438 L17.3398438,30.9101562 L15.4296875,29 L23,29 C23.828125,29 24.625,28.8925781 25.390625,28.6777344 C26.15625,28.4628906 26.8730469,28.1601562 27.5410156,27.7695312 C28.2089844,27.3789062 28.8164062,26.9101562 29.3632812,26.3632812 C29.9101562,25.8164062 30.3789062,25.2089844 30.7695312,24.5410156 C31.1601562,23.8730469 31.4628906,23.15625 31.6777344,22.390625 C31.8925781,21.625 32,20.828125 32,20 C32,19.359375 31.9316406,18.7265625 31.7949219,18.1015625 C31.6582031,17.4765625 31.4589844,16.8769531 31.1972656,16.3027344 C30.9355469,15.7285156 30.6152344,15.1855469 30.2363281,14.6738281 C29.8574219,14.1621094 29.4257812,13.6953125 28.9414062,13.2734375 L28.9414062,13.2734375 L27.8867188,14.3164062 C28.3007812,14.6679688 28.6699219,15.0605469 28.9941406,15.4941406 C29.3183594,15.9277344 29.5917969,16.3867188 29.8144531,16.8710938 C30.0371094,17.3554688 30.2070312,17.8613281 30.3242188,18.3886719 C30.4414062,18.9160156 30.5,19.453125 30.5,20 C30.5,20.6875 30.4101562,21.3515625 30.2304688,21.9921875 C30.0507812,22.6328125 29.7988281,23.2304688 29.4746094,23.7851562 C29.1503906,24.3398438 28.7597656,24.8457031 28.3027344,25.3027344 C27.8457031,25.7597656 27.3398438,26.1503906 26.7851562,26.4746094 C26.2304688,26.7988281 25.6328125,27.0507812 24.9921875,27.2304688 C24.3515625,27.4101562 23.6875,27.5 23,27.5 L23,27.5 L15.4296875,27.5 L17.3398438,25.5898438 L16.2851562,24.5351562 L12.5703125,28.25 L16.2851562,31.9648438 Z" id="path-1"></path>
    </defs>
    <g id="Icons/Run-Workflow" stroke="none" stroke-width="1" fill="none" fill-rule="evenodd">
        <g id="" fill-rule="nonzero" fill="#000000">
            <use xlink:href="#path-1"></use>
            <use xlink:href="#path-1"></use>
        </g>
    </g>
</svg>