<?xml version="1.0" encoding="UTF-8"?>
<svg width="40px" height="40px" viewBox="0 0 40 40" version="1.1" xmlns="http://www.w3.org/2000/svg" xmlns:xlink="http://www.w3.org/1999/xlink">
    <title>Icons/Save</title>
    <defs>
        <path d="M30.5,30.5 L30.5,11 C30.5,10.7890625 30.4609375,10.59375 30.3828125,10.4140625 C30.3046875,10.234375 30.1972656,10.0761719 30.0605469,9.93945312 C29.9238281,9.80273438 29.765625,9.6953125 29.5859375,9.6171875 C29.40625,9.5390625 29.2109375,9.5 29,9.5 L29,9.5 L11,9.5 C10.7890625,9.5 10.59375,9.5390625 10.4140625,9.6171875 C10.234375,9.6953125 10.0761719,9.80273438 9.93945312,9.93945312 C9.80273438,10.0761719 9.6953125,10.234375 9.6171875,10.4140625 C9.5390625,10.59375 9.5,10.7890625 9.5,11 L9.5,11 L9.5,27.8046875 L12.1835938,30.5 L30.5,30.5 Z M26,18.5 L14,18.5 L14,11 L26,11 L26,18.5 Z M14,29 L12.8046875,29 L11,27.1835938 L11,11 L12.5,11 L12.5,20 L27.5,20 L27.5,11 L29,11 L29,29 L24.5,29 L24.5,23 L14,23 L14,29 Z M17,29 L15.5,29 L15.5,24.5 L23,24.5 L23,29 L18.5,29 L18.5,26 L17,26 L17,29 Z" id="path-1"></path>
    </defs>
    <g id="Icons/Save" stroke="none" stroke-width="1" fill="none" fill-rule="evenodd">
        <g id="îŽ" fill-rule="nonzero" fill="#000000">
            <use xlink:href="#path-1"></use>
            <use xlink:href="#path-1"></use>
        </g>
    </g>
</svg>