<?xml version="1.0" encoding="UTF-8"?>
<svg width="40px" height="40px" viewBox="0 0 40 40" version="1.1" xmlns="http://www.w3.org/2000/svg" xmlns:xlink="http://www.w3.org/1999/xlink">
    <title>Icons/Configuration</title>
    <g id="Icons/Configuration" stroke="none" stroke-width="1" fill="none" fill-rule="evenodd">
        <path d="M22.3085938,31.9296875 L26.796875,30.0664062 L26,26.5859375 C26.203125,26.3984375 26.3984375,26.203125 26.5859375,26 L26.5859375,26 L30.0664062,26.796875 L31.9296875,22.3085938 L28.8945312,20.421875 C28.8945312,20.3515625 28.8964844,20.28125 28.9003906,20.2109375 C28.9042969,20.140625 28.90625,20.0703125 28.90625,20 C28.90625,19.9296875 28.9042969,19.859375 28.9003906,19.7890625 C28.8964844,19.71875 28.8945312,19.6484375 28.8945312,19.578125 L28.8945312,19.578125 L31.9296875,17.6914062 L30.0664062,13.203125 L26.5859375,14 C26.3984375,13.796875 26.203125,13.6015625 26,13.4140625 L26,13.4140625 L26.796875,9.93359375 L22.3085938,8.0703125 L20.421875,11.1054688 C20.3515625,11.1054688 20.28125,11.1035156 20.2109375,11.0996094 C20.140625,11.0957031 20.0703125,11.09375 20,11.09375 C19.9296875,11.09375 19.859375,11.0957031 19.7890625,11.0996094 C19.71875,11.1035156 19.6484375,11.1054688 19.578125,11.1054688 L19.578125,11.1054688 L17.6914062,8.0703125 L13.203125,9.93359375 L14,13.4140625 C13.796875,13.6015625 13.6015625,13.796875 13.4140625,14 L13.4140625,14 L9.93359375,13.203125 L8.0703125,17.6914062 L11.1054688,19.578125 C11.1054688,19.6484375 11.1035156,19.71875 11.0996094,19.7890625 C11.0957031,19.859375 11.09375,19.9296875 11.09375,20 C11.09375,20.0703125 11.0957031,20.140625 11.0996094,20.2109375 C11.1035156,20.28125 11.1054688,20.3515625 11.1054688,20.421875 L11.1054688,20.421875 L8.0703125,22.3085938 L9.93359375,26.796875 L13.4140625,26 C13.6015625,26.203125 13.796875,26.3984375 14,26.5859375 L14,26.5859375 L13.203125,30.0664062 L17.6914062,31.9296875 L19.578125,28.8945312 C19.6484375,28.8945312 19.71875,28.8964844 19.7890625,28.9003906 C19.859375,28.9042969 19.9296875,28.90625 20,28.90625 C20.0703125,28.90625 20.140625,28.9042969 20.2109375,28.9003906 C20.28125,28.8964844 20.3515625,28.8945312 20.421875,28.8945312 L20.421875,28.8945312 L22.3085938,31.9296875 Z M22.8359375,30.2890625 L21.1132812,27.5234375 C20.9257812,27.5390625 20.7402344,27.5546875 20.5566406,27.5703125 C20.3730469,27.5859375 20.1875,27.59375 20,27.59375 C19.8203125,27.59375 19.6367188,27.5859375 19.4492188,27.5703125 C19.2617188,27.5546875 19.078125,27.5390625 18.8984375,27.5234375 L18.8984375,27.5234375 L17.1640625,30.2890625 L14.7265625,29.28125 L15.4648438,26.1054688 C15.1679688,25.8554688 14.8925781,25.6054688 14.6386719,25.3554688 C14.3847656,25.1054688 14.1367188,24.8320312 13.8945312,24.5351562 L13.8945312,24.5351562 L10.71875,25.2734375 L9.7109375,22.8359375 L12.4765625,21.1132812 C12.4609375,20.9335938 12.4453125,20.75 12.4296875,20.5625 C12.4140625,20.375 12.40625,20.1914062 12.40625,20.0117188 C12.40625,19.8242188 12.4140625,19.6386719 12.4296875,19.4550781 C12.4453125,19.2714844 12.4609375,19.0859375 12.4765625,18.8984375 L12.4765625,18.8984375 L9.7109375,17.1640625 L10.71875,14.7265625 L13.8945312,15.4648438 C14.1445312,15.1679688 14.3945312,14.8925781 14.6445312,14.6386719 C14.8945312,14.3847656 15.1679688,14.1367188 15.4648438,13.8945312 L15.4648438,13.8945312 L14.7265625,10.71875 L17.1640625,9.7109375 L18.8867188,12.4765625 C19.0742188,12.4609375 19.2597656,12.4453125 19.4433594,12.4296875 C19.6269531,12.4140625 19.8125,12.40625 20,12.40625 C20.1796875,12.40625 20.3632812,12.4140625 20.5507812,12.4296875 C20.7382812,12.4453125 20.921875,12.4609375 21.1015625,12.4765625 L21.1015625,12.4765625 L22.8359375,9.7109375 L25.2734375,10.71875 L24.5351562,13.8945312 C24.8320312,14.1445312 25.1074219,14.3945312 25.3613281,14.6445312 C25.6152344,14.8945312 25.8632812,15.1679688 26.1054688,15.4648438 L26.1054688,15.4648438 L29.28125,14.7265625 L30.2890625,17.1640625 L27.5234375,18.8867188 C27.5390625,19.0664062 27.5546875,19.25 27.5703125,19.4375 C27.5859375,19.625 27.59375,19.8085938 27.59375,19.9882812 C27.59375,20.1757812 27.5859375,20.3613281 27.5703125,20.5449219 C27.5546875,20.7285156 27.5390625,20.9140625 27.5234375,21.1015625 L27.5234375,21.1015625 L30.2890625,22.8359375 L29.28125,25.2734375 L26.1054688,24.5351562 C25.8554688,24.8320312 25.6054688,25.1074219 25.3554688,25.3613281 C25.1054688,25.6152344 24.8320312,25.8632812 24.5351562,26.1054688 L24.5351562,26.1054688 L25.2734375,29.28125 L22.8359375,30.2890625 Z M20,24.40625 C20.609375,24.40625 21.1816406,24.2910156 21.7167969,24.0605469 C22.2519531,23.8300781 22.71875,23.515625 23.1171875,23.1171875 C23.515625,22.71875 23.8300781,22.2519531 24.0605469,21.7167969 C24.2910156,21.1816406 24.40625,20.609375 24.40625,20 C24.40625,19.390625 24.2910156,18.8183594 24.0605469,18.2832031 C23.8300781,17.7480469 23.515625,17.28125 23.1171875,16.8828125 C22.71875,16.484375 22.2519531,16.1699219 21.7167969,15.9394531 C21.1816406,15.7089844 20.609375,15.59375 20,15.59375 C19.390625,15.59375 18.8183594,15.7089844 18.2832031,15.9394531 C17.7480469,16.1699219 17.28125,16.484375 16.8828125,16.8828125 C16.484375,17.28125 16.1699219,17.7480469 15.9394531,18.2832031 C15.7089844,18.8183594 15.59375,19.390625 15.59375,20 C15.59375,20.609375 15.7089844,21.1816406 15.9394531,21.7167969 C16.1699219,22.2519531 16.484375,22.71875 16.8828125,23.1171875 C17.28125,23.515625 17.7480469,23.8300781 18.2832031,24.0605469 C18.8183594,24.2910156 19.390625,24.40625 20,24.40625 Z M20,23.09375 C19.5703125,23.09375 19.1679688,23.0136719 18.7929688,22.8535156 C18.4179688,22.6933594 18.0898438,22.4726562 17.8085938,22.1914062 C17.5273438,21.9101562 17.3066406,21.5820312 17.1464844,21.2070312 C16.9863281,20.8320312 16.90625,20.4296875 16.90625,20 C16.90625,19.5703125 16.9863281,19.1679688 17.1464844,18.7929688 C17.3066406,18.4179688 17.5273438,18.0898438 17.8085938,17.8085938 C18.0898438,17.5273438 18.4179688,17.3066406 18.7929688,17.1464844 C19.1679688,16.9863281 19.5703125,16.90625 20,16.90625 C20.4296875,16.90625 20.8320312,16.9863281 21.2070312,17.1464844 C21.5820312,17.3066406 21.9101562,17.5273438 22.1914062,17.8085938 C22.4726562,18.0898438 22.6933594,18.4179688 22.8535156,18.7929688 C23.0136719,19.1679688 23.09375,19.5703125 23.09375,20 C23.09375,20.4296875 23.0136719,20.8320312 22.8535156,21.2070312 C22.6933594,21.5820312 22.4726562,21.9101562 22.1914062,22.1914062 C21.9101562,22.4726562 21.5820312,22.6933594 21.2070312,22.8535156 C20.8320312,23.0136719 20.4296875,23.09375 20,23.09375 Z" id="" fill="#000000" fill-rule="nonzero"></path>
    </g>
</svg>