<?xml version="1.0" encoding="UTF-8"?>
<svg width="40px" height="40px" viewBox="0 0 40 40" version="1.1" xmlns="http://www.w3.org/2000/svg" xmlns:xlink="http://www.w3.org/1999/xlink">
    <title>Icons/Alert</title>
    <g id="Icons/Alert" stroke="none" stroke-width="1" fill="none" fill-rule="evenodd">
        <path d="M20,32 C21.1015625,32 22.1640625,31.8574219 23.1875,31.5722656 C24.2109375,31.2871094 25.1660156,30.8828125 26.0527344,30.359375 C26.9394531,29.8359375 27.7480469,29.2089844 28.4785156,28.4785156 C29.2089844,27.7480469 29.8359375,26.9394531 30.359375,26.0527344 C30.8828125,25.1660156 31.2871094,24.2109375 31.5722656,23.1875 C31.8574219,22.1640625 32,21.1015625 32,20 C32,18.8984375 31.8574219,17.8359375 31.5722656,16.8125 C31.2871094,15.7890625 30.8828125,14.8339844 30.359375,13.9472656 C29.8359375,13.0605469 29.2089844,12.2519531 28.4785156,11.5214844 C27.7480469,10.7910156 26.9394531,10.1640625 26.0527344,9.640625 C25.1660156,9.1171875 24.2109375,8.71289062 23.1875,8.42773438 C22.1640625,8.14257812 21.1015625,8 20,8 C18.8984375,8 17.8359375,8.14257812 16.8125,8.42773438 C15.7890625,8.71289062 14.8339844,9.1171875 13.9472656,9.640625 C13.0605469,10.1640625 12.2519531,10.7910156 11.5214844,11.5214844 C10.7910156,12.2519531 10.1640625,13.0605469 9.640625,13.9472656 C9.1171875,14.8339844 8.71289062,15.7890625 8.42773438,16.8125 C8.14257812,17.8359375 8,18.8984375 8,20 C8,21.1015625 8.14257812,22.1640625 8.42773438,23.1875 C8.71289062,24.2109375 9.1171875,25.1660156 9.640625,26.0527344 C10.1640625,26.9394531 10.7910156,27.7480469 11.5214844,28.4785156 C12.2519531,29.2089844 13.0605469,29.8359375 13.9472656,30.359375 C14.8339844,30.8828125 15.7890625,31.2871094 16.8125,31.5722656 C17.8359375,31.8574219 18.8984375,32 20,32 Z M21.5,21.5 L18.5,21.5 L18.5,14 L21.5,14 L21.5,21.5 Z M21.5,26 L18.5,26 L18.5,23 L21.5,23 L21.5,26 Z" id="" fill="#FFFFFF"></path>
    </g>
</svg>