<?xml version="1.0" encoding="UTF-8"?>
<svg width="40px" height="40px" viewBox="0 0 40 40" version="1.1" xmlns="http://www.w3.org/2000/svg" xmlns:xlink="http://www.w3.org/1999/xlink">
    <title>Icons/KO</title>
    <g id="Icons/KO" stroke="none" stroke-width="1" fill="none" fill-rule="evenodd">
        <path d="M20,32 C21.6607143,32 23.21875,31.6875 24.6741071,31.0625 C26.1294643,30.4375 27.4017857,29.5803571 28.4910714,28.4910714 C29.5803571,27.4017857 30.4375,26.1294643 31.0625,24.6741071 C31.6875,23.21875 32,21.6607143 32,20 C32,18.3392857 31.6875,16.78125 31.0625,15.3258929 C30.4375,13.8705357 29.5803571,12.5982143 28.4910714,11.5089286 C27.4017857,10.4196429 26.1294643,9.5625 24.6741071,8.9375 C23.21875,8.3125 21.6607143,8 20,8 C18.3392857,8 16.78125,8.3125 15.3258929,8.9375 C13.8705357,9.5625 12.5982143,10.4196429 11.5089286,11.5089286 C10.4196429,12.5982143 9.5625,13.8705357 8.9375,15.3258929 C8.3125,16.78125 8,18.3392857 8,20 C8,21.6607143 8.3125,23.21875 8.9375,24.6741071 C9.5625,26.1294643 10.4196429,27.4017857 11.5089286,28.4910714 C12.5982143,29.5803571 13.8705357,30.4375 15.3258929,31.0625 C16.78125,31.6875 18.3392857,32 20,32 Z M27.5040323,25 L15,12.4959677 C15.733871,12.0067204 16.5241935,11.6350806 17.3709677,11.3810484 C18.2177419,11.1270161 19.0833333,11 19.9677419,11 C21.2096774,11 22.3763441,11.2399194 23.4677419,11.7197581 C24.5591398,12.1995968 25.5141129,12.8487903 26.3326613,13.6673387 C27.1512097,14.4858871 27.8004032,15.4408602 28.2802419,16.5322581 C28.7600806,17.6236559 29,18.7903226 29,20.0322581 C29,20.9166667 28.8729839,21.7822581 28.6189516,22.6290323 C28.3649194,23.4758065 27.9932796,24.266129 27.5040323,25 L27.5040323,25 Z M20.0322581,29 C18.7903226,29 17.6189516,28.7647849 16.5181452,28.2943548 C15.4173387,27.8239247 14.4576613,27.1794355 13.6391129,26.3608871 C12.8205645,25.5423387 12.1760753,24.5826613 11.7056452,23.4818548 C11.2352151,22.3810484 11,21.2096774 11,19.9677419 C11,19.0833333 11.1270161,18.2177419 11.3810484,17.3709677 C11.6350806,16.5241935 12.0067204,15.733871 12.4959677,15 L12.4959677,15 L25,27.5040323 C24.266129,27.9932796 23.4758065,28.3649194 22.6290323,28.6189516 C21.7822581,28.8729839 20.9166667,29 20.0322581,29 Z" id="" fill="#FFFFFF"></path>
    </g>
</svg>