<?xml version="1.0" encoding="UTF-8"?>
<svg width="40px" height="40px" viewBox="0 0 40 40" version="1.1" xmlns="http://www.w3.org/2000/svg" xmlns:xlink="http://www.w3.org/1999/xlink">
    <title>Icons/OK</title>
    <g id="Icons/OK" stroke="none" stroke-width="1" fill="none" fill-rule="evenodd">
        <path d="M20,32 C21.1015625,32 22.1640625,31.8574219 23.1875,31.5722656 C24.2109375,31.2871094 25.1660156,30.8828125 26.0527344,30.359375 C26.9394531,29.8359375 27.7480469,29.2089844 28.4785156,28.4785156 C29.2089844,27.7480469 29.8359375,26.9394531 30.359375,26.0527344 C30.8828125,25.1660156 31.2871094,24.2109375 31.5722656,23.1875 C31.8574219,22.1640625 32,21.1015625 32,20 C32,18.8984375 31.8574219,17.8359375 31.5722656,16.8125 C31.2871094,15.7890625 30.8828125,14.8339844 30.359375,13.9472656 C29.8359375,13.0605469 29.2089844,12.2519531 28.4785156,11.5214844 C27.7480469,10.7910156 26.9394531,10.1640625 26.0527344,9.640625 C25.1660156,9.1171875 24.2109375,8.71289062 23.1875,8.42773438 C22.1640625,8.14257812 21.1015625,8 20,8 C18.8984375,8 17.8359375,8.14257812 16.8125,8.42773438 C15.7890625,8.71289062 14.8339844,9.1171875 13.9472656,9.640625 C13.0605469,10.1640625 12.2519531,10.7910156 11.5214844,11.5214844 C10.7910156,12.2519531 10.1640625,13.0605469 9.640625,13.9472656 C9.1171875,14.8339844 8.71289062,15.7890625 8.42773438,16.8125 C8.14257812,17.8359375 8,18.8984375 8,20 C8,21.1015625 8.14257812,22.1640625 8.42773438,23.1875 C8.71289062,24.2109375 9.1171875,25.1660156 9.640625,26.0527344 C10.1640625,26.9394531 10.7910156,27.7480469 11.5214844,28.4785156 C12.2519531,29.2089844 13.0605469,29.8359375 13.9472656,30.359375 C14.8339844,30.8828125 15.7890625,31.2871094 16.8125,31.5722656 C17.8359375,31.8574219 18.8984375,32 20,32 Z M18.6289062,23.7851562 C18.4648438,23.7851562 18.3027344,23.7519531 18.1425781,23.6855469 C17.9824219,23.6191406 17.84375,23.5273438 17.7265625,23.4101562 L17.7265625,23.4101562 L15.4414062,21.125 C15.3242188,21.0078125 15.2324219,20.8691406 15.1660156,20.7089844 C15.0996094,20.5488281 15.0664062,20.3867188 15.0664062,20.2226562 C15.0664062,20.0507812 15.0996094,19.8886719 15.1660156,19.7363281 C15.2324219,19.5839844 15.3242188,19.4492188 15.4414062,19.3320312 C15.5585938,19.2148438 15.6953125,19.1230469 15.8515625,19.0566406 C16.0078125,18.9902344 16.171875,18.9570312 16.34375,18.9570312 C16.6953125,18.9570312 16.9960938,19.0820312 17.2460938,19.3320312 L17.2460938,19.3320312 L18.6289062,20.7148438 L22.7539062,16.5898438 C22.8710938,16.4726562 23.0097656,16.3828125 23.1699219,16.3203125 C23.3300781,16.2578125 23.4921875,16.2265625 23.65625,16.2265625 C23.828125,16.2265625 23.9921875,16.2597656 24.1484375,16.3261719 C24.3046875,16.3925781 24.4394531,16.4824219 24.5527344,16.5957031 C24.6660156,16.7089844 24.7558594,16.84375 24.8222656,17 C24.8886719,17.15625 24.921875,17.3203125 24.921875,17.4921875 C24.921875,17.65625 24.890625,17.8164062 24.828125,17.9726562 C24.765625,18.1289062 24.6757812,18.265625 24.5585938,18.3828125 L24.5585938,18.3828125 L19.53125,23.4101562 C19.4140625,23.5273438 19.2773438,23.6191406 19.1210938,23.6855469 C18.9648438,23.7519531 18.8007812,23.7851562 18.6289062,23.7851562 Z" id="" fill="#FFFFFF"></path>
    </g>
</svg>