<?xml version="1.0" encoding="UTF-8"?>
<svg width="40px" height="40px" viewBox="0 0 40 40" version="1.1" xmlns="http://www.w3.org/2000/svg" xmlns:xlink="http://www.w3.org/1999/xlink">
    <title>Icons/Connection ON</title>
    <g id="Icons/Connection-ON" stroke="none" stroke-width="1" fill="none" fill-rule="evenodd">
        <path d="M23.3046875,22.6132812 L25.9648438,19.9648438 C26.4570312,19.4726562 26.8359375,18.9042969 27.1015625,18.2597656 C27.3671875,17.6152344 27.5,16.9453125 27.5,16.25 C27.5,15.6796875 27.4121094,15.1269531 27.2363281,14.5917969 C27.0605469,14.0566406 26.8007812,13.5625 26.4570312,13.109375 L26.4570312,13.109375 L30.2773438,9.27734375 L29.2226562,8.22265625 L25.390625,12.0429688 C24.9375,11.6992188 24.4433594,11.4394531 23.9082031,11.2636719 C23.3730469,11.0878906 22.8203125,11 22.25,11 C21.5546875,11 20.8847656,11.1328125 20.2402344,11.3984375 C19.5957031,11.6640625 19.0273438,12.0429688 18.5351562,12.5351562 L18.5351562,12.5351562 L15.8867188,15.1953125 L23.3046875,22.6132812 Z M23.3046875,20.4921875 L18.0078125,15.1953125 L19.6015625,13.6015625 C19.953125,13.25 20.3574219,12.9785156 20.8144531,12.7871094 C21.2714844,12.5957031 21.75,12.5 22.25,12.5 C22.765625,12.5 23.25,12.5996094 23.703125,12.7988281 C24.15625,12.9980469 24.5527344,13.2675781 24.8925781,13.6074219 C25.2324219,13.9472656 25.5019531,14.34375 25.7011719,14.796875 C25.9003906,15.25 26,15.734375 26,16.25 C26,16.75 25.9042969,17.2285156 25.7128906,17.6855469 C25.5214844,18.1425781 25.25,18.546875 24.8984375,18.8984375 L24.8984375,18.8984375 L23.3046875,20.4921875 Z M9.27734375,30.2773438 L13.109375,26.4570312 C13.5625,26.8007812 14.0566406,27.0605469 14.5917969,27.2363281 C15.1269531,27.4121094 15.6796875,27.5 16.25,27.5 C16.9453125,27.5 17.6152344,27.3671875 18.2597656,27.1015625 C18.9042969,26.8359375 19.4726562,26.4570312 19.9648438,25.9648438 L19.9648438,25.9648438 L22.6132812,23.3046875 L15.1953125,15.8867188 L12.5351562,18.5351562 C12.0429688,19.0273438 11.6640625,19.5957031 11.3984375,20.2402344 C11.1328125,20.8847656 11,21.5546875 11,22.25 C11,22.8203125 11.0878906,23.3730469 11.2636719,23.9082031 C11.4394531,24.4433594 11.6992188,24.9375 12.0429688,25.390625 L12.0429688,25.390625 L8.22265625,29.2226562 L9.27734375,30.2773438 Z M16.25,26 C15.734375,26 15.2480469,25.9023438 14.7910156,25.7070312 C14.3339844,25.5117188 13.9355469,25.2441406 13.5957031,24.9042969 C13.2558594,24.5644531 12.9882812,24.1660156 12.7929688,23.7089844 C12.5976562,23.2519531 12.5,22.765625 12.5,22.25 C12.5,21.75 12.5957031,21.2714844 12.7871094,20.8144531 C12.9785156,20.3574219 13.25,19.953125 13.6015625,19.6015625 L13.6015625,19.6015625 L15.1953125,18.0078125 L20.4921875,23.3046875 L18.8984375,24.8984375 C18.546875,25.25 18.1425781,25.5214844 17.6855469,25.7128906 C17.2285156,25.9042969 16.75,26 16.25,26 Z" id="" fill="#000000"></path>
    </g>
</svg>