<?xml version="1.0" encoding="UTF-8"?>
<svg width="40px" height="40px" viewBox="0 0 40 40" version="1.1" xmlns="http://www.w3.org/2000/svg" xmlns:xlink="http://www.w3.org/1999/xlink">
    <title>Icons/Documentation</title>
    <g id="Icons/Documentation" stroke="none" stroke-width="1" fill="none" fill-rule="evenodd">
        <path d="M20,7 C27.1797017,7 33,12.8202983 33,20 C33,27.1797017 27.1797017,33 20,33 C12.8202983,33 7,27.1797017 7,20 C7,12.8202983 12.8202983,7 20,7 Z M20,8.5 C13.6487254,8.5 8.5,13.6487254 8.5,20 C8.5,26.3512746 13.6487254,31.5 20,31.5 C26.3512746,31.5 31.5,26.3512746 31.5,20 C31.5,13.6487254 26.3512746,8.5 20,8.5 Z M20.25,27.5 L20.25,29 L18.75,29 L18.75,27.5 L20.25,27.5 Z M19.5,11 C20.0028935,11 20.4882812,11.0657051 20.9561632,11.1971154 C21.4240451,11.3285256 21.8616898,11.5144231 22.2690972,11.7548077 C22.6765046,11.9951923 23.0489005,12.2852564 23.3862847,12.625 C23.723669,12.9647436 24.0117188,13.3397436 24.250434,13.75 C24.4891493,14.1602564 24.6737558,14.6009615 24.8042535,15.0721154 C24.9347512,15.5432692 25,16.0320513 25,16.5384615 C25,17.0769231 24.9299769,17.5641026 24.7899306,18 C24.6498843,18.4358974 24.4652778,18.8349359 24.2361111,19.1971154 C24.0069444,19.5592949 23.7459491,19.8942308 23.453125,20.2019231 C23.1603009,20.5096154 22.8611111,20.8076923 22.5555556,21.0961538 C22.25,21.3846154 21.9508102,21.6714744 21.6579861,21.9567308 C21.365162,22.2419872 21.1041667,22.5448718 20.875,22.8653846 C20.6458333,23.1858974 20.4612269,23.5320513 20.3211806,23.9038462 C20.2091435,24.2012821 20.1419213,24.5274359 20.1195139,24.8823077 L20.1111111,25.1538462 L20.1111111,26 L18.8888889,26 L18.8888889,25.1538462 C18.8888889,24.6153846 18.958912,24.1282051 19.0989583,23.6923077 C19.2390046,23.2564103 19.4236111,22.8573718 19.6527778,22.4951923 C19.8819444,22.1330128 20.1429398,21.7996795 20.4357639,21.4951923 C20.728588,21.1907051 21.0277778,20.8942308 21.3333333,20.6057692 C21.6388889,20.3173077 21.9380787,20.0288462 22.2309028,19.7403846 C22.5237269,19.4519231 22.7847222,19.1474359 23.0138889,18.8269231 C23.2430556,18.5064103 23.427662,18.1602564 23.5677083,17.7884615 C23.7077546,17.4166667 23.7777778,17 23.7777778,16.5384615 C23.7777778,15.9423077 23.6647859,15.3830128 23.4388021,14.8605769 C23.2128183,14.338141 22.9072627,13.8830128 22.5221354,13.4951923 C22.1370081,13.1073718 21.6850405,12.7996795 21.1662326,12.5721154 C20.6474248,12.3445513 20.0920139,12.2307692 19.5,12.2307692 C18.9079861,12.2307692 18.3525752,12.3445513 17.8337674,12.5721154 C17.3149595,12.7996795 16.8629919,13.1073718 16.4778646,13.4951923 C16.0927373,13.8830128 15.7871817,14.338141 15.5611979,14.8605769 C15.3674975,15.3083791 15.2568116,15.7832614 15.2291401,16.2852237 L15.2222222,16.5384615 L14,16.5384615 C14,16.0320513 14.0652488,15.5432692 14.1957465,15.0721154 C14.3262442,14.6009615 14.5108507,14.1602564 14.749566,13.75 C14.9882812,13.3397436 15.276331,12.9647436 15.6137153,12.625 C15.9510995,12.2852564 16.3234954,11.9951923 16.7309028,11.7548077 C17.1383102,11.5144231 17.5759549,11.3285256 18.0438368,11.1971154 C18.5117188,11.0657051 18.9971065,11 19.5,11 Z" id="Combined-Shape" fill="#000000"></path>
    </g>
</svg>