<?xml version="1.0" encoding="UTF-8"?>
<svg width="40px" height="40px" viewBox="0 0 40 40" version="1.1" xmlns="http://www.w3.org/2000/svg" xmlns:xlink="http://www.w3.org/1999/xlink">
    <title>Icons/JTI logo</title>
    <g id="Icons/JTI-logo" stroke="none" stroke-width="1" fill="none" fill-rule="evenodd">
        <path d="M18.2420859,14 C21.1001352,14.0024749 23.9557665,14 26.8138157,14.0024749 C26.8766832,14.0024749 26.9395506,14.0173241 27,14.0247488 C26.997582,14.4603272 27,14.8934307 27,15.329009 C26.4390292,15.3405585 25.8780585,15.3345088 25.3170877,15.3335922 L24.4756316,15.3389086 L24.4756316,15.3389086 C24.325717,15.3661322 24.1975642,15.4725519 24.1008451,15.5888711 C24.01138,15.6952909 24.0476496,15.8413086 24.0379777,15.9675274 L24.0379777,23.3426613 C24.0428137,23.5084781 24.0210519,23.67182 24.0258878,23.8376368 C24.0234698,23.9465314 24.0428137,24.0579008 24.001708,24.1618457 C23.9654384,24.2657905 23.9412586,24.3821098 23.8638833,24.4637807 C23.791344,24.5454517 23.7115508,24.619698 23.6196676,24.6815699 C23.4141395,24.820163 23.2207014,24.9835049 23.0030834,25.1047739 C22.8459149,25.2210931 22.6645666,25.3002892 22.512234,25.4240331 C22.3913351,25.5230281 22.2438385,25.5750006 22.1253576,25.6715208 C21.9899509,25.7804154 21.8279464,25.8398124 21.6949576,25.9511819 C21.5377891,26.0749257 21.3564408,26.1640213 21.1992723,26.2877652 C21.0856273,26.352112 20.9768183,26.4313081 20.8535015,26.4709061 L20.7685048,26.476034 L20.7685048,26.476034 L20.6813028,26.4780733 C20.5941976,26.4763508 20.5091815,26.4600166 20.4424453,26.3991347 C20.3191285,26.2877652 20.2054836,26.1417474 20.2030656,25.968506 L20.2030656,16.0912712 C20.2054836,15.9081303 20.2127375,15.7101401 20.1039285,15.5542229 C19.9806117,15.4007805 19.7750836,15.3265342 19.5840634,15.3339588 L18.9671769,15.3348869 L18.9671769,15.3348869 L18.3484769,15.3339588 L18.3484769,15.3339588 C18.232414,15.3389086 18.1018432,15.3636573 18.02205,15.4601775 C17.8987331,15.6012455 17.8842253,15.8116101 17.7512365,15.9477283 C17.6343676,16.0776594 17.4637659,16.1405625 17.2926044,16.1521921 L17.1902658,16.1531431 L17.1902658,16.1531431 L17.0872986,16.1530837 L17.0872986,16.1530837 L16.9828227,16.1496981 L16.9828227,16.1496981 L16.8788109,16.1515394 C16.810063,16.15641 16.74294,16.1704673 16.6800725,16.2051156 C16.5470838,16.2793619 16.4576186,16.4303294 16.4552006,16.5837718 L16.4552006,24.679095 C16.4552006,24.7384921 16.4576186,24.800364 16.4382748,24.8572862 C16.3754074,25.0849749 16.3608995,25.3275128 16.2496726,25.5403523 C16.1070119,25.8868351 15.8603782,26.191245 15.5412052,26.3793356 C15.238958,26.614449 14.9028592,26.7975899 14.598194,27.0277535 C14.4724592,27.1242737 14.3297985,27.1960451 14.2064817,27.2925653 C14.0928367,27.3816609 13.9743559,27.4682816 13.8462031,27.5301535 C13.7591559,27.5722264 13.6841986,27.6365732 13.6092413,27.6959703 C13.5101042,27.7776412 13.3916233,27.8320885 13.2900683,27.9137595 C13.1619155,28.0177043 13.0168368,28.0919506 12.886266,28.1934206 C12.7000818,28.3245891 12.4993897,28.4359586 12.3132054,28.5745517 C11.9712343,28.7972906 11.579522,28.9291157 11.1776584,28.9793781 L10.9760639,28.9977557 L10.9760639,28.9977557 C10.7874617,29.0076552 10.6012774,28.9829064 10.4126752,28.9606325 C10.320792,28.9494956 10.2325359,28.9235094 10.1454887,28.8925734 L9.8855561,28.7948158 L9.8855561,28.7948158 C9.68002803,28.7180946 9.5010977,28.5819763 9.34151119,28.4310088 C9.24962805,28.3394384 9.18917862,28.2206443 9.11905727,28.1117497 C8.98365054,27.8766363 8.99574043,27.5920255 9.00541234,27.3272136 C9.03926402,27.0129042 9.25204603,26.7480923 9.50593365,26.5847504 C9.65343027,26.49318 9.8105988,26.4090342 9.98469318,26.3941849 C10.0804451,26.3694361 10.1777445,26.3617145 10.2747344,26.3661099 L10.419755,26.381177 C10.5159712,26.3964618 10.6109493,26.4214086 10.7028325,26.4511071 C10.8334032,26.4907051 10.9397942,26.5773258 11.0437673,26.6639465 C11.1501583,26.7480923 11.2130257,26.8743111 11.285565,26.9856805 C11.3701942,27.1118993 11.4064639,27.2653417 11.4790032,27.4014599 C11.5660504,27.5722264 11.6434257,27.7751664 11.8296099,27.8593122 C11.8738244,27.8769899 11.9223813,27.8865864 11.9713894,27.8877552 L12.0447535,27.8831446 C12.1417264,27.8684541 12.2327213,27.8193606 12.2866076,27.7330935 C12.354311,27.6118245 12.4195964,27.4856057 12.4486121,27.3470126 C12.4993897,27.09705 12.4824638,26.8396628 12.4848818,26.5847504 C12.4848818,23.2857392 12.4848818,19.984253 12.4872998,16.6852417 C12.4969717,16.559023 12.4727919,16.4253796 12.3954166,16.3214348 C12.3204593,16.2249146 12.2019784,16.1729422 12.0859155,16.155618 C11.8682976,16.1457185 11.6530976,16.1580929 11.4378976,16.1506683 C11.2178616,16.1209697 11.0026617,15.9774269 10.9204504,15.7596377 C10.8648369,15.6185697 10.8382392,15.4453283 10.9107785,15.3042603 C10.961556,15.1854662 11.0074976,15.0518228 11.1235605,14.9825262 C11.2347875,14.9206543 11.3581043,14.8761065 11.4838392,14.8637321 L16.9726478,14.8637321 C17.1201444,14.8538326 17.2869849,14.8563075 17.4054658,14.7498878 C17.5408725,14.6607922 17.5626343,14.4850759 17.6400096,14.3539074 C17.7754163,14.1534424 17.9978702,14.0024749 18.2420859,14 Z M28.0808194,14.0001146 L31.8285632,14.0025413 L31.8285632,14.0025413 C31.8818023,14.0025413 31.932482,14.0122481 31.9856705,14.0195282 C31.9983404,14.1141695 32.0008997,14.2088107 31.9983404,14.303452 L31.9983404,21.3894147 C31.9983404,21.4792025 32.0034084,21.5690147 31.9958318,21.6587783 C31.9628899,21.8917415 31.8209612,22.1101444 31.6106402,22.2314794 C31.4788728,22.3042804 31.3521733,22.381959 31.2204059,22.45476 C31.0556967,22.5396702 30.9137933,22.6585785 30.751618,22.7483664 C30.5185164,22.8818349 30.2929661,23.0225835 30.0674411,23.1657587 C29.9635476,23.236133 29.8596794,23.3065073 29.7456499,23.3671748 C29.5733133,23.4569627 29.426342,23.5855777 29.2489628,23.6705122 C29.0766516,23.7505933 28.9499521,23.9010487 28.767505,23.9592895 L28.6643241,23.9870069 L28.6643241,23.9870069 L28.5578174,23.9990267 C28.4862322,24.0023634 28.4140136,23.9969033 28.3443289,23.9859832 C28.1264059,23.9083288 27.9997064,23.680219 28.0022404,23.4642428 L28.0022404,14.0826224 C27.9895705,14.0340884 28.0326483,13.9976879 28.0808194,14.0001146 Z M29.1429788,12.0043336 L31.4683893,12.0043336 L31.4683893,12.0043336 C31.6445567,12.0327227 31.8277709,12.1008566 31.9099824,12.2352318 C32.0109851,12.3468957 32.0086362,12.4869487 31.9898684,12.6175387 C31.954635,12.7045987 31.8959125,12.7878735 31.8066543,12.8484369 C31.7295916,12.919599 31.6254996,12.9762258 31.5099646,12.9940921 L31.4214113,12.9998456 L31.4214113,12.9998456 L28.6262209,12.9998456 L28.6262209,12.9998456 C28.4641468,13.0017382 28.2903518,12.9582082 28.1776046,12.8597926 C28.1071376,12.7973365 28.0413449,12.72731 28.0108092,12.6440352 C27.992018,12.4964118 27.9849948,12.3317548 28.1000674,12.2068427 C28.1752322,12.1027492 28.306794,12.0384005 28.4524023,12.0175818 C28.6802456,11.9948705 28.9128101,11.9986557 29.1429788,12.0043336 Z" id="Combined-Shape" fill="#FFFFFF"></path>
    </g>
</svg>