<?xml version="1.0" encoding="UTF-8"?>
<svg width="40px" height="40px" viewBox="0 0 40 40" version="1.1" xmlns="http://www.w3.org/2000/svg" xmlns:xlink="http://www.w3.org/1999/xlink">
    <title>Icons/Automation</title>
    <defs>
        <path d="M11,32 L11,26.5039062 C11,26.3632812 11.0488281,26.2441406 11.1464844,26.1464844 C11.2441406,26.0488281 11.3632812,26 11.5039062,26 L11.5039062,26 L26.9960938,26 C27.1367188,26 27.2558594,26.0488281 27.3535156,26.1464844 C27.4511719,26.2441406 27.5,26.3632812 27.5,26.5039062 L27.5,26.5039062 L27.5,32 L29,32 L29,26.5039062 C29,26.2304688 28.9472656,25.9726562 28.8417969,25.7304688 C28.7363281,25.4882812 28.5917969,25.2753906 28.4082031,25.0917969 C28.2246094,24.9082031 28.0117188,24.7636719 27.7695312,24.6582031 C27.5273438,24.5527344 27.2695312,24.5 26.9960938,24.5 L26.9960938,24.5 L23,24.5 L23,23 L23.9960938,23 C24.2695312,23 24.5273438,22.9472656 24.7695312,22.8417969 C25.0117188,22.7363281 25.2246094,22.59375 25.4082031,22.4140625 C25.5917969,22.234375 25.7363281,22.0214844 25.8417969,21.7753906 C25.9472656,21.5292969 26,21.2695312 26,20.9960938 L26,20.9960938 L26,20 L27.5,20 L27.5,17 L26,17 L26,16.0039062 C26,15.7304688 25.9472656,15.4726562 25.8417969,15.2304688 C25.7363281,14.9882812 25.5917969,14.7753906 25.4082031,14.5917969 C25.2246094,14.4082031 25.0117188,14.2636719 24.7695312,14.1582031 C24.5273438,14.0527344 24.2695312,14 23.9960938,14 L23.9960938,14 L20,14 L20,11.5507812 C20.2265625,11.4179688 20.4082031,11.234375 20.5449219,11 C20.6816406,10.765625 20.75,10.515625 20.75,10.25 C20.75,10.0390625 20.7109375,9.84375 20.6328125,9.6640625 C20.5546875,9.484375 20.4472656,9.32617188 20.3105469,9.18945312 C20.1738281,9.05273438 20.015625,8.9453125 19.8359375,8.8671875 C19.65625,8.7890625 19.4609375,8.75 19.25,8.75 C19.0390625,8.75 18.84375,8.7890625 18.6640625,8.8671875 C18.484375,8.9453125 18.3261719,9.05273438 18.1894531,9.18945312 C18.0527344,9.32617188 17.9453125,9.484375 17.8671875,9.6640625 C17.7890625,9.84375 17.75,10.0390625 17.75,10.25 C17.75,10.515625 17.8183594,10.765625 17.9550781,11 C18.0917969,11.234375 18.2734375,11.4179688 18.5,11.5507812 L18.5,11.5507812 L18.5,14 L14.5039062,14 C14.2304688,14 13.9707031,14.0527344 13.7246094,14.1582031 C13.4785156,14.2636719 13.265625,14.4082031 13.0859375,14.5917969 C12.90625,14.7753906 12.7636719,14.9882812 12.6582031,15.2304688 C12.5527344,15.4726562 12.5,15.7304688 12.5,16.0039062 L12.5,16.0039062 L12.5,17 L11,17 L11,20 L12.5,20 L12.5,20.9960938 C12.5,21.2695312 12.5527344,21.5292969 12.6582031,21.7753906 C12.7636719,22.0214844 12.90625,22.234375 13.0859375,22.4140625 C13.265625,22.59375 13.4785156,22.7363281 13.7246094,22.8417969 C13.9707031,22.9472656 14.2304688,23 14.5039062,23 L14.5039062,23 L15.5,23 L15.5,24.5 L11.5039062,24.5 C11.2304688,24.5 10.9707031,24.5527344 10.7246094,24.6582031 C10.4785156,24.7636719 10.265625,24.9082031 10.0859375,25.0917969 C9.90625,25.2753906 9.76367188,25.4882812 9.65820312,25.7304688 C9.55273438,25.9726562 9.5,26.2304688 9.5,26.5039062 L9.5,26.5039062 L9.5,32 L11,32 Z M23.9960938,21.5 L14.5039062,21.5 C14.3632812,21.5 14.2441406,21.4511719 14.1464844,21.3535156 C14.0488281,21.2558594 14,21.1367188 14,20.9960938 L14,20.9960938 L14,16.0039062 C14,15.8632812 14.0488281,15.7441406 14.1464844,15.6464844 C14.2441406,15.5488281 14.3632812,15.5 14.5039062,15.5 L14.5039062,15.5 L23.9960938,15.5 C24.1367188,15.5 24.2558594,15.5488281 24.3535156,15.6464844 C24.4511719,15.7441406 24.5,15.8632812 24.5,16.0039062 L24.5,16.0039062 L24.5,20.9960938 C24.5,21.1367188 24.4511719,21.2558594 24.3535156,21.3535156 C24.2558594,21.4511719 24.1367188,21.5 23.9960938,21.5 L23.9960938,21.5 Z M17,18.5 L17,17 L15.5,17 L15.5,18.5 L17,18.5 Z M23,18.5 L23,17 L21.5,17 L21.5,18.5 L23,18.5 Z M21.5,24.5 L17,24.5 L17,23 L21.5,23 L21.5,24.5 Z" id="path-1"></path>
    </defs>
    <g id="Icons/Automation" stroke="none" stroke-width="1" fill="none" fill-rule="evenodd">
        <g id="" fill-rule="nonzero" fill="#000000">
            <use xlink:href="#path-1"></use>
            <use xlink:href="#path-1"></use>
        </g>
    </g>
</svg>