<?xml version="1.0" encoding="UTF-8"?>
<svg width="40px" height="40px" viewBox="0 0 40 40" version="1.1" xmlns="http://www.w3.org/2000/svg" xmlns:xlink="http://www.w3.org/1999/xlink">
    <title>Icons/Disclosure</title>
    <defs>
        <path d="M30.5,32 L30.5,17 L27.5,17 L27.5,11 L21.5,11 C21.5,10.59375 21.4199219,10.2070312 21.2597656,9.83984375 C21.0996094,9.47265625 20.8847656,9.15429688 20.6152344,8.88476562 C20.3457031,8.61523438 20.0273438,8.40039062 19.6601562,8.24023438 C19.2929688,8.08007812 18.90625,8 18.5,8 C18.0859375,8 17.6972656,8.08007812 17.3339844,8.24023438 C16.9707031,8.40039062 16.6542969,8.61523438 16.3847656,8.88476562 C16.1152344,9.15429688 15.9003906,9.47265625 15.7402344,9.83984375 C15.5800781,10.2070312 15.5,10.59375 15.5,11 L15.5,11 L9.5,11 L9.5,30.5 L18.5,30.5 L18.5,32 L30.5,32 Z M23,14 L14,14 L14,12.5 L17,12.5 C17,12.2109375 16.9960938,11.890625 16.9882812,11.5390625 C16.9804688,11.1875 17.0175781,10.8613281 17.0996094,10.5605469 C17.1816406,10.2597656 17.3261719,10.0078125 17.5332031,9.8046875 C17.7402344,9.6015625 18.0625,9.5 18.5,9.5 C18.7890625,9.5 19.0273438,9.546875 19.2148438,9.640625 C19.4023438,9.734375 19.5507812,9.859375 19.6601562,10.015625 C19.7695312,10.171875 19.8496094,10.3535156 19.9003906,10.5605469 C19.9511719,10.7675781 19.984375,10.9824219 20,11.2050781 C20.015625,11.4277344 20.0195312,11.6503906 20.0117188,11.8730469 C20.0039062,12.0957031 20,12.3046875 20,12.5 L20,12.5 L23,12.5 L23,14 Z M18.5,29 L11,29 L11,12.5 L12.5,12.5 L12.5,15.5 L24.5,15.5 L24.5,12.5 L26,12.5 L26,17 L18.5,17 L18.5,29 Z M29,30.5 L20,30.5 L20,18.5 L29,18.5 L29,30.5 Z" id="path-1"></path>
    </defs>
    <g id="Icons/Disclosure" stroke="none" stroke-width="1" fill="none" fill-rule="evenodd">
        <g id="î¿" fill-rule="nonzero" fill="#000000">
            <use xlink:href="#path-1"></use>
            <use xlink:href="#path-1"></use>
        </g>
    </g>
</svg>