<?xml version="1.0" encoding="UTF-8"?>
<svg width="40px" height="40px" viewBox="0 0 40 40" version="1.1" xmlns="http://www.w3.org/2000/svg" xmlns:xlink="http://www.w3.org/1999/xlink">
    <title>Icons/Refresh Content</title>
    <defs>
        <path d="M20,32 C21.1015625,32 22.1640625,31.8574219 23.1875,31.5722656 C24.2109375,31.2871094 25.1679688,30.8847656 26.0585938,30.3652344 C26.9492188,29.8457031 27.7597656,29.2207031 28.4902344,28.4902344 C29.2207031,27.7597656 29.8457031,26.9492188 30.3652344,26.0585938 C30.8847656,25.1679688 31.2871094,24.2109375 31.5722656,23.1875 C31.8574219,22.1640625 32,21.1015625 32,20 C32,18.65625 31.7851562,17.3652344 31.3554688,16.1269531 C30.9257812,14.8886719 30.3222656,13.7597656 29.5449219,12.7402344 C28.7675781,11.7207031 27.8398438,10.8378906 26.7617188,10.0917969 C25.6835938,9.34570312 24.4960938,8.796875 23.1992188,8.4453125 L23.1992188,8.4453125 L22.8007812,9.88671875 C23.9335938,10.1992188 24.9707031,10.6816406 25.9121094,11.3339844 C26.8535156,11.9863281 27.6640625,12.7578125 28.34375,13.6484375 C29.0234375,14.5390625 29.5527344,15.5273438 29.9316406,16.6132812 C30.3105469,17.6992188 30.5,18.828125 30.5,20 C30.5,20.96875 30.375,21.8984375 30.125,22.7890625 C29.875,23.6796875 29.5214844,24.5136719 29.0644531,25.2910156 C28.6074219,26.0683594 28.0585938,26.7773438 27.4179688,27.4179688 C26.7773438,28.0585938 26.0683594,28.6074219 25.2910156,29.0644531 C24.5136719,29.5214844 23.6777344,29.875 22.7832031,30.125 C21.8886719,30.375 20.9609375,30.5 20,30.5 C19.03125,30.5 18.1015625,30.375 17.2109375,30.125 C16.3203125,29.875 15.4863281,29.5214844 14.7089844,29.0644531 C13.9316406,28.6074219 13.2226562,28.0585938 12.5820312,27.4179688 C11.9414062,26.7773438 11.3925781,26.0683594 10.9355469,25.2910156 C10.4785156,24.5136719 10.125,23.6777344 9.875,22.7832031 C9.625,21.8886719 9.5,20.9609375 9.5,20 C9.5,18.9921875 9.640625,18.0117188 9.921875,17.0585938 C10.203125,16.1054688 10.6054688,15.2167969 11.1289062,14.3925781 C11.6523438,13.5683594 12.2832031,12.8261719 13.0214844,12.1660156 C13.7597656,11.5058594 14.5859375,10.9570312 15.5,10.5195312 L15.5,10.5195312 L15.5,14 L17,14 L17,8 L11,8 L11,9.5 L14.2109375,9.5 C13.25,10.03125 12.3867188,10.6699219 11.6210938,11.4160156 C10.8554688,12.1621094 10.2050781,12.9902344 9.66992188,13.9003906 C9.13476562,14.8105469 8.72265625,15.78125 8.43359375,16.8125 C8.14453125,17.84375 8,18.90625 8,20 C8,21.109375 8.14257812,22.1738281 8.42773438,23.1933594 C8.71289062,24.2128906 9.11523438,25.1679688 9.63476562,26.0585938 C10.1542969,26.9492188 10.7792969,27.7597656 11.5097656,28.4902344 C12.2402344,29.2207031 13.0507812,29.8457031 13.9414062,30.3652344 C14.8320312,30.8847656 15.7890625,31.2871094 16.8125,31.5722656 C17.8359375,31.8574219 18.8984375,32 20,32 Z" id="path-1"></path>
    </defs>
    <g id="Icons/Refresh-Content" stroke="none" stroke-width="1" fill="none" fill-rule="evenodd">
        <g id="" fill-rule="nonzero" fill="#000000">
            <use xlink:href="#path-1"></use>
            <use xlink:href="#path-1"></use>
        </g>
    </g>
</svg>