<?xml version="1.0" encoding="UTF-8"?>
<svg width="40px" height="40px" viewBox="0 0 40 40" version="1.1" xmlns="http://www.w3.org/2000/svg" xmlns:xlink="http://www.w3.org/1999/xlink">
    <title>Icons/SAP</title>
    <defs>
        <path d="M24.5,29 L24.5,27.5 L30.5,27.5 L30.5,26 L24.5,26 L24.5,24.5 L21.5,24.5 L21.5,21.5 L20,21.5 L20,20 L30.5,20 L30.5,12.5 C30.5,12.2890625 30.4609375,12.09375 30.3828125,11.9140625 C30.3046875,11.734375 30.1972656,11.5761719 30.0605469,11.4394531 C29.9238281,11.3027344 29.765625,11.1953125 29.5859375,11.1171875 C29.40625,11.0390625 29.2109375,11 29,11 L29,11 L9.5,11 C9.2890625,11 9.09375,11.0390625 8.9140625,11.1171875 C8.734375,11.1953125 8.57617188,11.3027344 8.43945312,11.4394531 C8.30273438,11.5761719 8.1953125,11.734375 8.1171875,11.9140625 C8.0390625,12.09375 8,12.2890625 8,12.5 L8,12.5 L8,20 L18.5,20 L18.5,21.5 L17,21.5 L17,24.5 L14,24.5 L14,26 L8,26 L8,27.5 L14,27.5 L14,29 L24.5,29 Z M29,18.5 L9.5,18.5 L9.5,12.5 L29,12.5 L29,18.5 Z M26.75,15.5 C26.953125,15.5 27.1289062,15.4257812 27.2773438,15.2773438 C27.4257812,15.1289062 27.5,14.953125 27.5,14.75 C27.5,14.546875 27.4257812,14.3710938 27.2773438,14.2226562 C27.1289062,14.0742188 26.953125,14 26.75,14 C26.546875,14 26.3710938,14.0742188 26.2226562,14.2226562 C26.0742188,14.3710938 26,14.546875 26,14.75 C26,14.953125 26.0742188,15.1289062 26.2226562,15.2773438 C26.3710938,15.4257812 26.546875,15.5 26.75,15.5 Z M23,27.5 L15.5,27.5 L15.5,26 L18.5,26 L18.5,23 L20,23 L20,26 L23,26 L23,27.5 Z" id="path-1"></path>
    </defs>
    <g id="Icons/SAP" stroke="none" stroke-width="1" fill="none" fill-rule="evenodd">
        <g id="" fill-rule="nonzero" fill="#000000">
            <use xlink:href="#path-1"></use>
            <use xlink:href="#path-1"></use>
        </g>
    </g>
</svg>