<?xml version="1.0" encoding="UTF-8"?>
<svg width="40px" height="40px" viewBox="0 0 40 40" version="1.1" xmlns="http://www.w3.org/2000/svg" xmlns:xlink="http://www.w3.org/1999/xlink">
    <title>Icons/User</title>
    <g id="Icons/User" stroke="none" stroke-width="1" fill="none" fill-rule="evenodd">
        <path d="M23.0741429,22.0831429 C23.9844286,22.3981429 24.806,22.8391429 25.5401429,23.4035714 C26.273,23.9705714 26.8952857,24.625 27.4082857,25.3681429 C27.92,26.1112857 28.3134286,26.9251429 28.5885714,27.8084286 C28.8624286,28.693 29,29.6135714 29,30.5714286 L27.7142857,30.5714286 C27.7142857,29.4734286 27.5188571,28.4538571 27.1267143,27.5127143 C26.7345714,26.5715714 26.1932857,25.7564286 25.5041429,25.066 C24.8137143,24.3768571 23.9985714,23.8355714 23.0587143,23.4447143 C22.1175714,23.0525714 21.098,22.8571429 20,22.8571429 C19.2825714,22.8571429 18.5934286,22.9471429 17.9312857,23.1284286 C17.2678571,23.3084286 16.6507143,23.5642857 16.0772857,23.896 C15.5051429,24.2277143 14.9857143,24.6275714 14.5202857,25.0917143 C14.0548571,25.5571429 13.6562857,26.0752857 13.3258571,26.6487143 C12.9941429,27.2208571 12.7382857,27.8392857 12.557,28.5014286 C12.3757143,29.1648571 12.2857143,29.8552857 12.2857143,30.5714286 L11,30.5714286 C11,29.6071429 11.1401429,28.6852857 11.4217143,27.8032857 C11.7032857,26.9238571 12.1005714,26.1151429 12.6174286,25.3784286 C13.1317143,24.6417143 13.7578571,23.9911429 14.4907143,23.4292857 C15.2235714,22.8661429 16.0425714,22.4225714 16.9464286,22.0934286 C16.4244286,21.8118571 15.9551429,21.4698571 15.5398571,21.0687143 C15.1245714,20.6662857 14.7722857,20.2201429 14.4804286,19.7277143 C14.1885714,19.2352857 13.9648571,18.7107143 13.808,18.1501429 C13.6498571,17.5921429 13.5714286,17.0187143 13.5714286,16.4285714 C13.5714286,15.5375714 13.7385714,14.7031429 14.0741429,13.9214286 C14.4071429,13.1422857 14.8674286,12.4608571 15.4498571,11.8784286 C16.0322857,11.2947143 16.7124286,10.837 17.4941429,10.5014286 C18.2732857,10.1684286 19.109,10 20,10 C20.8897143,10 21.7254286,10.1684286 22.5058571,10.5014286 C23.2862857,10.837 23.9677143,11.2947143 24.5501429,11.8784286 C25.1325714,12.4608571 25.5915714,13.1422857 25.9258571,13.9214286 C26.2601429,14.7031429 26.4285714,15.5375714 26.4285714,16.4285714 C26.4285714,17.0187143 26.3501429,17.5908571 26.192,18.1462857 C26.0338571,18.7017143 25.8114286,19.2237143 25.5195714,19.7122857 C25.2277143,20.2021429 24.8767143,20.6495714 24.4652857,21.0532857 C24.0525714,21.4595714 23.5884286,21.8015714 23.0741429,22.0831429 L23.0741429,22.0831429 Z M14.8571429,16.4285714 C14.8571429,17.1382857 14.9934286,17.8042857 15.2647143,18.4265714 C15.5347143,19.0501429 15.9024286,19.594 16.3691429,20.0594286 C16.8332857,20.5248571 17.3784286,20.8925714 18.0007143,21.1638571 C18.6242857,21.4351429 19.289,21.5714286 20,21.5714286 C20.7097143,21.5714286 21.3757143,21.4351429 21.9992857,21.1638571 C22.6215714,20.8925714 23.1654286,20.5248571 23.6308571,20.0594286 C24.0962857,19.594 24.4652857,19.0501429 24.7365714,18.4265714 C25.0078571,17.8042857 25.1428571,17.1382857 25.1428571,16.4285714 C25.1428571,15.7188571 25.0078571,15.0515714 24.7365714,14.4292857 C24.4652857,13.807 24.0962857,13.2631429 23.6308571,12.7964286 C23.1654286,12.3322857 22.6215714,11.9632857 21.9992857,11.692 C21.3757143,11.4207143 20.7097143,11.2857143 20,11.2857143 C19.289,11.2857143 18.6242857,11.4207143 18.0007143,11.692 C17.3784286,11.9632857 16.8332857,12.3322857 16.3691429,12.7964286 C15.9024286,13.2631429 15.5347143,13.807 15.2647143,14.4292857 C14.9934286,15.0515714 14.8571429,15.7188571 14.8571429,16.4285714 L14.8571429,16.4285714 Z" id="Fill-29" fill="#000100"></path>
    </g>
</svg>